<svg width="247" height="53" viewBox="0 0 247 53" fill="none" xmlns="http://www.w3.org/2000/svg">
<rect width="247" height="53" rx="16" fill="black"/>
<path d="M23.7045 35H17.517V17.5455H23.7557C25.5114 17.5455 27.0227 17.8949 28.2898 18.5938C29.5568 19.2869 30.5313 20.2841 31.2131 21.5852C31.9006 22.8864 32.2443 24.4432 32.2443 26.2557C32.2443 28.0739 31.9006 29.6364 31.2131 30.9432C30.5313 32.25 29.5511 33.2528 28.2727 33.9517C27 34.6506 25.4773 35 23.7045 35ZM21.2074 31.8381H23.5511C24.642 31.8381 25.5597 31.6449 26.304 31.2585C27.054 30.8665 27.6165 30.2614 27.9915 29.4432C28.3722 28.6193 28.5625 27.5568 28.5625 26.2557C28.5625 24.9659 28.3722 23.9119 27.9915 23.0938C27.6165 22.2756 27.0568 21.6733 26.3125 21.2869C25.5682 20.9006 24.6506 20.7074 23.5597 20.7074H21.2074V31.8381ZM40.8757 35.2557C39.5291 35.2557 38.37 34.983 37.3984 34.4375C36.4325 33.8864 35.6882 33.108 35.1655 32.1023C34.6428 31.0909 34.3814 29.8949 34.3814 28.5142C34.3814 27.1676 34.6428 25.9858 35.1655 24.9688C35.6882 23.9517 36.424 23.1591 37.3729 22.5909C38.3274 22.0227 39.4467 21.7386 40.7308 21.7386C41.5945 21.7386 42.3984 21.8778 43.1428 22.1562C43.8928 22.429 44.5462 22.8409 45.103 23.392C45.6655 23.9432 46.103 24.6364 46.4155 25.4716C46.728 26.3011 46.8842 27.2727 46.8842 28.3864V29.3835H35.8303V27.1335H43.4666C43.4666 26.6108 43.353 26.1477 43.1257 25.7443C42.8984 25.3409 42.5831 25.0256 42.1797 24.7983C41.782 24.5653 41.3189 24.4489 40.7905 24.4489C40.2393 24.4489 39.7507 24.5767 39.3246 24.8324C38.9041 25.0824 38.5746 25.4205 38.3359 25.8466C38.0973 26.267 37.9751 26.7358 37.9695 27.2528V29.392C37.9695 30.0398 38.0888 30.5994 38.3274 31.071C38.5717 31.5426 38.9155 31.9062 39.3587 32.1619C39.8018 32.4176 40.3274 32.5455 40.9354 32.5455C41.3388 32.5455 41.7081 32.4886 42.0433 32.375C42.3786 32.2614 42.6655 32.0909 42.9041 31.8636C43.1428 31.6364 43.3246 31.358 43.4496 31.0284L46.8075 31.25C46.6371 32.0568 46.2876 32.7614 45.7592 33.3636C45.2365 33.9602 44.5604 34.4261 43.7308 34.7614C42.907 35.0909 41.9553 35.2557 40.8757 35.2557ZM60.1456 25.642L56.8217 25.8466C56.7649 25.5625 56.6428 25.3068 56.4553 25.0795C56.2678 24.8466 56.0206 24.6619 55.7138 24.5256C55.4126 24.3835 55.0518 24.3125 54.6314 24.3125C54.0689 24.3125 53.5945 24.4318 53.2081 24.6705C52.8217 24.9034 52.6286 25.2159 52.6286 25.608C52.6286 25.9205 52.7536 26.1847 53.0036 26.4006C53.2536 26.6165 53.6825 26.7898 54.2905 26.9205L56.6598 27.3977C57.9325 27.6591 58.8814 28.0795 59.5064 28.6591C60.1314 29.2386 60.4439 30 60.4439 30.9432C60.4439 31.8011 60.1911 32.554 59.6854 33.2017C59.1854 33.8494 58.4979 34.3551 57.6229 34.7188C56.7536 35.0767 55.7507 35.2557 54.6143 35.2557C52.8814 35.2557 51.5007 34.8949 50.4723 34.1733C49.4496 33.446 48.8501 32.4574 48.674 31.2074L52.245 31.0199C52.353 31.5483 52.6143 31.9517 53.0291 32.2301C53.4439 32.5028 53.9751 32.6392 54.6229 32.6392C55.2592 32.6392 55.7706 32.517 56.157 32.2727C56.549 32.0227 56.7479 31.7017 56.7536 31.3097C56.7479 30.9801 56.6087 30.7102 56.3359 30.5C56.0632 30.2841 55.6428 30.1193 55.0746 30.0057L52.8075 29.554C51.5291 29.2983 50.5774 28.8551 49.9524 28.2244C49.3331 27.5937 49.0234 26.7898 49.0234 25.8125C49.0234 24.9716 49.2507 24.2472 49.7053 23.6392C50.1655 23.0312 50.8104 22.5625 51.6399 22.233C52.4751 21.9034 53.4524 21.7386 54.5717 21.7386C56.2251 21.7386 57.5263 22.0881 58.4751 22.7869C59.4297 23.4858 59.9865 24.4375 60.1456 25.642ZM68.6449 35.2557C67.304 35.2557 66.1506 34.9716 65.1847 34.4034C64.2244 33.8295 63.4858 33.0341 62.9688 32.017C62.4574 31 62.2017 29.8295 62.2017 28.5057C62.2017 27.1648 62.4602 25.9886 62.9773 24.9773C63.5 23.9602 64.2415 23.1676 65.2017 22.5994C66.1619 22.0256 67.304 21.7386 68.6278 21.7386C69.7699 21.7386 70.7699 21.946 71.6278 22.3608C72.4858 22.7756 73.1648 23.358 73.6648 24.108C74.1648 24.858 74.4403 25.7386 74.4915 26.75H71.0653C70.9688 26.0966 70.7131 25.571 70.2983 25.1733C69.8892 24.7699 69.3523 24.5682 68.6875 24.5682C68.125 24.5682 67.6335 24.7216 67.2131 25.0284C66.7983 25.3295 66.4744 25.7699 66.2415 26.3494C66.0085 26.929 65.892 27.6307 65.892 28.4545C65.892 29.2898 66.0057 30 66.233 30.5852C66.4659 31.1705 66.7926 31.6165 67.2131 31.9233C67.6335 32.2301 68.125 32.3835 68.6875 32.3835C69.1023 32.3835 69.4744 32.2983 69.804 32.1278C70.1392 31.9574 70.4148 31.7102 70.6307 31.3864C70.8523 31.0568 70.9972 30.6619 71.0653 30.2017H74.4915C74.4347 31.2017 74.1619 32.0824 73.6733 32.8438C73.1903 33.5994 72.5227 34.1903 71.6705 34.6165C70.8182 35.0426 69.8097 35.2557 68.6449 35.2557ZM85.2109 29.4261V21.9091H88.8416V35H85.3558V32.6222H85.2195C84.924 33.3892 84.4325 34.0057 83.745 34.4716C83.0632 34.9375 82.2308 35.1705 81.2479 35.1705C80.3729 35.1705 79.603 34.9716 78.9382 34.5739C78.2734 34.1761 77.7536 33.6108 77.3786 32.8778C77.0092 32.1449 76.8217 31.267 76.8161 30.2443V21.9091H80.4467V29.5966C80.4524 30.3693 80.6598 30.9801 81.0689 31.429C81.478 31.8778 82.0263 32.1023 82.7138 32.1023C83.1513 32.1023 83.5604 32.0028 83.9411 31.804C84.3217 31.5994 84.6286 31.2983 84.8615 30.9006C85.1001 30.5028 85.2166 30.0114 85.2109 29.4261ZM91.8139 35V17.5455H95.4446V24.108H95.5554C95.7145 23.7557 95.9446 23.3977 96.2457 23.0341C96.5526 22.6648 96.9503 22.358 97.4389 22.1136C97.9332 21.8636 98.5469 21.7386 99.2798 21.7386C100.234 21.7386 101.115 21.9886 101.922 22.4886C102.729 22.983 103.374 23.7301 103.857 24.7301C104.339 25.7244 104.581 26.9716 104.581 28.4716C104.581 29.9318 104.345 31.1648 103.874 32.1705C103.408 33.1705 102.771 33.929 101.964 34.446C101.163 34.9574 100.266 35.2131 99.2713 35.2131C98.5668 35.2131 97.9673 35.0966 97.473 34.8636C96.9844 34.6307 96.5838 34.3381 96.2713 33.9858C95.9588 33.6278 95.7202 33.267 95.5554 32.9034H95.3935V35H91.8139ZM95.3679 28.4545C95.3679 29.233 95.4759 29.9119 95.6918 30.4915C95.9077 31.071 96.2202 31.5227 96.6293 31.8466C97.0384 32.1648 97.5355 32.3239 98.1207 32.3239C98.7116 32.3239 99.2116 32.1619 99.6207 31.8381C100.03 31.5085 100.339 31.054 100.55 30.4744C100.766 29.8892 100.874 29.2159 100.874 28.4545C100.874 27.6989 100.768 27.0341 100.558 26.4602C100.348 25.8864 100.038 25.4375 99.6293 25.1136C99.2202 24.7898 98.7173 24.6278 98.1207 24.6278C97.5298 24.6278 97.0298 24.7841 96.6207 25.0966C96.2173 25.4091 95.9077 25.8523 95.6918 26.4261C95.4759 27 95.3679 27.6761 95.3679 28.4545ZM107.004 35V21.9091H110.523V24.1932H110.66C110.898 23.3807 111.299 22.767 111.862 22.3523C112.424 21.9318 113.072 21.7216 113.805 21.7216C113.987 21.7216 114.183 21.733 114.393 21.7557C114.603 21.7784 114.788 21.8097 114.947 21.8494V25.071C114.776 25.0199 114.54 24.9744 114.239 24.9347C113.938 24.8949 113.663 24.875 113.413 24.875C112.879 24.875 112.401 24.9915 111.981 25.2244C111.566 25.4517 111.237 25.7699 110.992 26.179C110.754 26.5881 110.634 27.0597 110.634 27.5938V35H107.004ZM122.18 35.2557C120.834 35.2557 119.675 34.983 118.703 34.4375C117.737 33.8864 116.993 33.108 116.47 32.1023C115.947 31.0909 115.686 29.8949 115.686 28.5142C115.686 27.1676 115.947 25.9858 116.47 24.9688C116.993 23.9517 117.729 23.1591 118.678 22.5909C119.632 22.0227 120.751 21.7386 122.036 21.7386C122.899 21.7386 123.703 21.8778 124.447 22.1562C125.197 22.429 125.851 22.8409 126.408 23.392C126.97 23.9432 127.408 24.6364 127.72 25.4716C128.033 26.3011 128.189 27.2727 128.189 28.3864V29.3835H117.135V27.1335H124.771C124.771 26.6108 124.658 26.1477 124.43 25.7443C124.203 25.3409 123.888 25.0256 123.484 24.7983C123.087 24.5653 122.624 24.4489 122.095 24.4489C121.544 24.4489 121.055 24.5767 120.629 24.8324C120.209 25.0824 119.879 25.4205 119.641 25.8466C119.402 26.267 119.28 26.7358 119.274 27.2528V29.392C119.274 30.0398 119.393 30.5994 119.632 31.071C119.876 31.5426 120.22 31.9062 120.663 32.1619C121.107 32.4176 121.632 32.5455 122.24 32.5455C122.643 32.5455 123.013 32.4886 123.348 32.375C123.683 32.2614 123.97 32.0909 124.209 31.8636C124.447 31.6364 124.629 31.358 124.754 31.0284L128.112 31.25C127.942 32.0568 127.592 32.7614 127.064 33.3636C126.541 33.9602 125.865 34.4261 125.036 34.7614C124.212 35.0909 123.26 35.2557 122.18 35.2557ZM136.113 35V21.9091H139.573V24.2188H139.727C139.999 23.4517 140.454 22.8466 141.09 22.4034C141.727 21.9602 142.488 21.7386 143.374 21.7386C144.272 21.7386 145.036 21.9631 145.667 22.4119C146.298 22.8551 146.718 23.4574 146.928 24.2188H147.065C147.332 23.4688 147.815 22.8693 148.513 22.4205C149.218 21.9659 150.05 21.7386 151.011 21.7386C152.232 21.7386 153.224 22.1278 153.985 22.9062C154.752 23.679 155.136 24.7756 155.136 26.196V35H151.513V26.9119C151.513 26.1847 151.32 25.6392 150.934 25.2756C150.548 24.9119 150.065 24.7301 149.485 24.7301C148.826 24.7301 148.312 24.9403 147.942 25.3608C147.573 25.7756 147.388 26.3239 147.388 27.0057V35H143.869V26.8352C143.869 26.1932 143.684 25.6818 143.315 25.3011C142.951 24.9205 142.471 24.7301 141.874 24.7301C141.471 24.7301 141.107 24.8324 140.783 25.0369C140.465 25.2358 140.212 25.517 140.025 25.8807C139.837 26.2386 139.744 26.6591 139.744 27.142V35H136.113ZM161.737 35.2472C160.901 35.2472 160.157 35.1023 159.504 34.8125C158.85 34.517 158.333 34.0824 157.952 33.5085C157.577 32.929 157.39 32.2074 157.39 31.3438C157.39 30.6165 157.523 30.0057 157.79 29.5114C158.058 29.017 158.421 28.6193 158.881 28.3182C159.342 28.017 159.864 27.7898 160.45 27.6364C161.04 27.483 161.66 27.375 162.308 27.3125C163.069 27.233 163.683 27.1591 164.148 27.0909C164.614 27.017 164.952 26.9091 165.163 26.767C165.373 26.625 165.478 26.4148 165.478 26.1364V26.0852C165.478 25.5455 165.308 25.1278 164.967 24.8324C164.631 24.5369 164.154 24.3892 163.535 24.3892C162.881 24.3892 162.362 24.5341 161.975 24.8239C161.589 25.108 161.333 25.4659 161.208 25.8977L157.85 25.625C158.021 24.8295 158.356 24.142 158.856 23.5625C159.356 22.9773 160.001 22.5284 160.79 22.2159C161.586 21.8977 162.506 21.7386 163.552 21.7386C164.279 21.7386 164.975 21.8239 165.64 21.9943C166.31 22.1648 166.904 22.429 167.421 22.7869C167.944 23.1449 168.356 23.6051 168.657 24.1676C168.958 24.7244 169.109 25.392 169.109 26.1705V35H165.665V33.1847H165.563C165.353 33.5938 165.072 33.9545 164.719 34.267C164.367 34.5739 163.944 34.8153 163.45 34.9915C162.955 35.1619 162.384 35.2472 161.737 35.2472ZM162.776 32.7415C163.31 32.7415 163.782 32.6364 164.191 32.4261C164.6 32.2102 164.921 31.9205 165.154 31.5568C165.387 31.1932 165.504 30.7812 165.504 30.321V28.9318C165.39 29.0057 165.234 29.0739 165.035 29.1364C164.842 29.1932 164.623 29.2472 164.379 29.2983C164.134 29.3437 163.89 29.3864 163.646 29.4261C163.401 29.4602 163.18 29.4915 162.981 29.5199C162.555 29.5824 162.183 29.6818 161.864 29.8182C161.546 29.9545 161.299 30.1392 161.123 30.3722C160.947 30.5994 160.859 30.8835 160.859 31.2244C160.859 31.7188 161.038 32.0966 161.396 32.358C161.759 32.6136 162.219 32.7415 162.776 32.7415ZM162.384 20.2216L164.191 16.3438H167.549L164.95 20.2216H162.384ZM182.817 25.642L179.494 25.8466C179.437 25.5625 179.315 25.3068 179.127 25.0795C178.94 24.8466 178.692 24.6619 178.386 24.5256C178.085 24.3835 177.724 24.3125 177.303 24.3125C176.741 24.3125 176.266 24.4318 175.88 24.6705C175.494 24.9034 175.3 25.2159 175.3 25.608C175.3 25.9205 175.425 26.1847 175.675 26.4006C175.925 26.6165 176.354 26.7898 176.962 26.9205L179.332 27.3977C180.604 27.6591 181.553 28.0795 182.178 28.6591C182.803 29.2386 183.116 30 183.116 30.9432C183.116 31.8011 182.863 32.554 182.357 33.2017C181.857 33.8494 181.17 34.3551 180.295 34.7188C179.425 35.0767 178.423 35.2557 177.286 35.2557C175.553 35.2557 174.173 34.8949 173.144 34.1733C172.121 33.446 171.522 32.4574 171.346 31.2074L174.917 31.0199C175.025 31.5483 175.286 31.9517 175.701 32.2301C176.116 32.5028 176.647 32.6392 177.295 32.6392C177.931 32.6392 178.442 32.517 178.829 32.2727C179.221 32.0227 179.42 31.7017 179.425 31.3097C179.42 30.9801 179.281 30.7102 179.008 30.5C178.735 30.2841 178.315 30.1193 177.746 30.0057L175.479 29.554C174.201 29.2983 173.249 28.8551 172.624 28.2244C172.005 27.5937 171.695 26.7898 171.695 25.8125C171.695 24.9716 171.923 24.2472 172.377 23.6392C172.837 23.0312 173.482 22.5625 174.312 22.233C175.147 21.9034 176.124 21.7386 177.244 21.7386C178.897 21.7386 180.198 22.0881 181.147 22.7869C182.102 23.4858 182.658 24.4375 182.817 25.642Z" fill="white"/>
<path d="M232.061 27.5607C232.646 26.9749 232.646 26.0251 232.061 25.4393L222.515 15.8934C221.929 15.3076 220.979 15.3076 220.393 15.8934C219.808 16.4792 219.808 17.4289 220.393 18.0147L228.879 26.5L220.393 34.9853C219.808 35.5711 219.808 36.5208 220.393 37.1066C220.979 37.6924 221.929 37.6924 222.515 37.1066L232.061 27.5607ZM196 28H231V25H196V28Z" fill="white"/>
</svg>
