<svg width="1920" height="41" viewBox="0 0 1920 41" fill="none" xmlns="http://www.w3.org/2000/svg">
<mask id="path-1-inside-1_86_55" fill="white">
<path d="M0 0H1920V41H0V0Z"/>
</mask>
<path d="M0 0H1920V41H0V0Z" fill="black"/>
<path d="M0 1H1920V-1H0V1ZM1920 40H0V42H1920V40Z" fill="black" mask="url(#path-1-inside-1_86_55)"/>
<path d="M50.1165 11.5455V29H46.929L39.3352 18.0142H39.2074V29H35.517V11.5455H38.7557L46.2898 22.5227H46.4432V11.5455H50.1165ZM59.0632 29.2557C57.7166 29.2557 56.5575 28.983 55.5859 28.4375C54.62 27.8864 53.8757 27.108 53.353 26.1023C52.8303 25.0909 52.5689 23.8949 52.5689 22.5142C52.5689 21.1676 52.8303 19.9858 53.353 18.9688C53.8757 17.9517 54.6115 17.1591 55.5604 16.5909C56.5149 16.0227 57.6342 15.7386 58.9183 15.7386C59.782 15.7386 60.5859 15.8778 61.3303 16.1562C62.0803 16.429 62.7337 16.8409 63.2905 17.392C63.853 17.9432 64.2905 18.6364 64.603 19.4716C64.9155 20.3011 65.0717 21.2727 65.0717 22.3864V23.3835H54.0178V21.1335H61.6541C61.6541 20.6108 61.5405 20.1477 61.3132 19.7443C61.0859 19.3409 60.7706 19.0256 60.3672 18.7983C59.9695 18.5653 59.5064 18.4489 58.978 18.4489C58.4268 18.4489 57.9382 18.5767 57.5121 18.8324C57.0916 19.0824 56.7621 19.4205 56.5234 19.8466C56.2848 20.267 56.1626 20.7358 56.157 21.2528V23.392C56.157 24.0398 56.2763 24.5994 56.5149 25.071C56.7592 25.5426 57.103 25.9062 57.5462 26.1619C57.9893 26.4176 58.5149 26.5455 59.1229 26.5455C59.5263 26.5455 59.8956 26.4886 60.2308 26.375C60.5661 26.2614 60.853 26.0909 61.0916 25.8636C61.3303 25.6364 61.5121 25.358 61.6371 25.0284L64.995 25.25C64.8246 26.0568 64.4751 26.7614 63.9467 27.3636C63.424 27.9602 62.7479 28.4261 61.9183 28.7614C61.0945 29.0909 60.1428 29.2557 59.0632 29.2557ZM69.9297 29L66.3672 15.9091H70.0405L72.0689 24.7045H72.1882L74.3018 15.9091H77.907L80.0547 24.6534H80.1655L82.1598 15.9091H85.8246L82.2706 29H78.4268L76.1768 20.767H76.0149L73.7649 29H69.9297ZM96.3928 29H92.4382L98.4638 11.5455H103.219L109.237 29H105.282L100.91 15.5341H100.773L96.3928 29ZM96.1456 22.1392H105.487V25.0199H96.1456V22.1392ZM111.269 29V15.9091H114.789V18.1932H114.925C115.164 17.3807 115.565 16.767 116.127 16.3523C116.69 15.9318 117.337 15.7216 118.07 15.7216C118.252 15.7216 118.448 15.733 118.658 15.7557C118.869 15.7784 119.053 15.8097 119.212 15.8494V19.071C119.042 19.0199 118.806 18.9744 118.505 18.9347C118.204 18.8949 117.928 18.875 117.678 18.875C117.144 18.875 116.667 18.9915 116.246 19.2244C115.832 19.4517 115.502 19.7699 115.258 20.179C115.019 20.5881 114.9 21.0597 114.9 21.5938V29H111.269ZM121.089 29V15.9091H124.609V18.1932H124.746C124.984 17.3807 125.385 16.767 125.947 16.3523C126.51 15.9318 127.158 15.7216 127.891 15.7216C128.072 15.7216 128.268 15.733 128.479 15.7557C128.689 15.7784 128.874 15.8097 129.033 15.8494V19.071C128.862 19.0199 128.626 18.9744 128.325 18.9347C128.024 18.8949 127.749 18.875 127.499 18.875C126.964 18.875 126.487 18.9915 126.067 19.2244C125.652 19.4517 125.322 19.7699 125.078 20.179C124.839 20.5881 124.72 21.0597 124.72 21.5938V29H121.089ZM130.91 29V15.9091H134.54V29H130.91ZM132.734 14.2216C132.194 14.2216 131.731 14.0426 131.344 13.6847C130.964 13.321 130.773 12.8864 130.773 12.3807C130.773 11.8807 130.964 11.4517 131.344 11.0938C131.731 10.7301 132.194 10.5483 132.734 10.5483C133.273 10.5483 133.734 10.7301 134.114 11.0938C134.501 11.4517 134.694 11.8807 134.694 12.3807C134.694 12.8864 134.501 13.321 134.114 13.6847C133.734 14.0426 133.273 14.2216 132.734 14.2216ZM149.653 15.9091L145.077 29H140.986L136.409 15.9091H140.244L142.963 25.2756H143.099L145.81 15.9091H149.653ZM154.893 29.2472C154.058 29.2472 153.313 29.1023 152.66 28.8125C152.006 28.517 151.489 28.0824 151.109 27.5085C150.734 26.929 150.546 26.2074 150.546 25.3438C150.546 24.6165 150.68 24.0057 150.947 23.5114C151.214 23.017 151.577 22.6193 152.038 22.3182C152.498 22.017 153.021 21.7898 153.606 21.6364C154.197 21.483 154.816 21.375 155.464 21.3125C156.225 21.233 156.839 21.1591 157.305 21.0909C157.771 21.017 158.109 20.9091 158.319 20.767C158.529 20.625 158.634 20.4148 158.634 20.1364V20.0852C158.634 19.5455 158.464 19.1278 158.123 18.8324C157.788 18.5369 157.31 18.3892 156.691 18.3892C156.038 18.3892 155.518 18.5341 155.131 18.8239C154.745 19.108 154.489 19.4659 154.364 19.8977L151.006 19.625C151.177 18.8295 151.512 18.142 152.012 17.5625C152.512 16.9773 153.157 16.5284 153.947 16.2159C154.742 15.8977 155.663 15.7386 156.708 15.7386C157.435 15.7386 158.131 15.8239 158.796 15.9943C159.467 16.1648 160.06 16.429 160.577 16.7869C161.1 17.1449 161.512 17.6051 161.813 18.1676C162.114 18.7244 162.265 19.392 162.265 20.1705V29H158.822V27.1847H158.719C158.509 27.5938 158.228 27.9545 157.876 28.267C157.523 28.5739 157.1 28.8153 156.606 28.9915C156.112 29.1619 155.54 29.2472 154.893 29.2472ZM155.933 26.7415C156.467 26.7415 156.938 26.6364 157.347 26.4261C157.756 26.2102 158.077 25.9205 158.31 25.5568C158.543 25.1932 158.66 24.7812 158.66 24.321V22.9318C158.546 23.0057 158.39 23.0739 158.191 23.1364C157.998 23.1932 157.779 23.2472 157.535 23.2983C157.29 23.3437 157.046 23.3864 156.802 23.4261C156.558 23.4602 156.336 23.4915 156.137 23.5199C155.711 23.5824 155.339 23.6818 155.021 23.8182C154.702 23.9545 154.455 24.1392 154.279 24.3722C154.103 24.5994 154.015 24.8835 154.015 25.2244C154.015 25.7188 154.194 26.0966 154.552 26.358C154.915 26.6136 155.376 26.7415 155.933 26.7415ZM168.712 11.5455V29H165.082V11.5455H168.712ZM182.513 19.642L179.189 19.8466C179.132 19.5625 179.01 19.3068 178.822 19.0795C178.635 18.8466 178.388 18.6619 178.081 18.5256C177.78 18.3835 177.419 18.3125 176.999 18.3125C176.436 18.3125 175.962 18.4318 175.575 18.6705C175.189 18.9034 174.996 19.2159 174.996 19.608C174.996 19.9205 175.121 20.1847 175.371 20.4006C175.621 20.6165 176.05 20.7898 176.658 20.9205L179.027 21.3977C180.3 21.6591 181.249 22.0795 181.874 22.6591C182.499 23.2386 182.811 24 182.811 24.9432C182.811 25.8011 182.558 26.554 182.053 27.2017C181.553 27.8494 180.865 28.3551 179.99 28.7188C179.121 29.0767 178.118 29.2557 176.982 29.2557C175.249 29.2557 173.868 28.8949 172.839 28.1733C171.817 27.446 171.217 26.4574 171.041 25.2074L174.612 25.0199C174.72 25.5483 174.982 25.9517 175.396 26.2301C175.811 26.5028 176.342 26.6392 176.99 26.6392C177.626 26.6392 178.138 26.517 178.524 26.2727C178.916 26.0227 179.115 25.7017 179.121 25.3097C179.115 24.9801 178.976 24.7102 178.703 24.5C178.43 24.2841 178.01 24.1193 177.442 24.0057L175.175 23.554C173.896 23.2983 172.945 22.8551 172.32 22.2244C171.7 21.5937 171.391 20.7898 171.391 19.8125C171.391 18.9716 171.618 18.2472 172.072 17.6392C172.533 17.0312 173.178 16.5625 174.007 16.233C174.842 15.9034 175.82 15.7386 176.939 15.7386C178.592 15.7386 179.893 16.0881 180.842 16.7869C181.797 17.4858 182.354 18.4375 182.513 19.642ZM244.999 11.5455V29H241.812L234.218 18.0142H234.09V29H230.4V11.5455H233.638L241.173 22.5227H241.326V11.5455H244.999ZM253.895 29.2557C252.571 29.2557 251.426 28.9744 250.46 28.4119C249.5 27.8437 248.759 27.054 248.236 26.0426C247.713 25.0256 247.452 23.8466 247.452 22.5057C247.452 21.1534 247.713 19.9716 248.236 18.9602C248.759 17.9432 249.5 17.1534 250.46 16.5909C251.426 16.0227 252.571 15.7386 253.895 15.7386C255.219 15.7386 256.361 16.0227 257.321 16.5909C258.287 17.1534 259.031 17.9432 259.554 18.9602C260.077 19.9716 260.338 21.1534 260.338 22.5057C260.338 23.8466 260.077 25.0256 259.554 26.0426C259.031 27.054 258.287 27.8437 257.321 28.4119C256.361 28.9744 255.219 29.2557 253.895 29.2557ZM253.912 26.4432C254.514 26.4432 255.017 26.2727 255.42 25.9318C255.824 25.5852 256.128 25.1136 256.332 24.517C256.543 23.9205 256.648 23.2415 256.648 22.4801C256.648 21.7188 256.543 21.0398 256.332 20.4432C256.128 19.8466 255.824 19.375 255.42 19.0284C255.017 18.6818 254.514 18.5085 253.912 18.5085C253.304 18.5085 252.793 18.6818 252.378 19.0284C251.969 19.375 251.659 19.8466 251.449 20.4432C251.244 21.0398 251.142 21.7188 251.142 22.4801C251.142 23.2415 251.244 23.9205 251.449 24.517C251.659 25.1136 251.969 25.5852 252.378 25.9318C252.793 26.2727 253.304 26.4432 253.912 26.4432ZM274.482 15.9091L269.905 29H265.814L261.237 15.9091H265.072L267.791 25.2756H267.928L270.638 15.9091H274.482ZM281.884 29.2557C280.537 29.2557 279.378 28.983 278.406 28.4375C277.44 27.8864 276.696 27.108 276.173 26.1023C275.651 25.0909 275.389 23.8949 275.389 22.5142C275.389 21.1676 275.651 19.9858 276.173 18.9688C276.696 17.9517 277.432 17.1591 278.381 16.5909C279.335 16.0227 280.455 15.7386 281.739 15.7386C282.602 15.7386 283.406 15.8778 284.151 16.1562C284.901 16.429 285.554 16.8409 286.111 17.392C286.673 17.9432 287.111 18.6364 287.423 19.4716C287.736 20.3011 287.892 21.2727 287.892 22.3864V23.3835H276.838V21.1335H284.474C284.474 20.6108 284.361 20.1477 284.134 19.7443C283.906 19.3409 283.591 19.0256 283.188 18.7983C282.79 18.5653 282.327 18.4489 281.798 18.4489C281.247 18.4489 280.759 18.5767 280.332 18.8324C279.912 19.0824 279.582 19.4205 279.344 19.8466C279.105 20.267 278.983 20.7358 278.977 21.2528V23.392C278.977 24.0398 279.097 24.5994 279.335 25.071C279.58 25.5426 279.923 25.9062 280.366 26.1619C280.81 26.4176 281.335 26.5455 281.943 26.5455C282.347 26.5455 282.716 26.4886 283.051 26.375C283.386 26.2614 283.673 26.0909 283.912 25.8636C284.151 25.6364 284.332 25.358 284.457 25.0284L287.815 25.25C287.645 26.0568 287.295 26.7614 286.767 27.3636C286.244 27.9602 285.568 28.4261 284.739 28.7614C283.915 29.0909 282.963 29.2557 281.884 29.2557ZM295.085 29.2131C294.091 29.2131 293.19 28.9574 292.384 28.446C291.582 27.929 290.946 27.1705 290.474 26.1705C290.009 25.1648 289.776 23.9318 289.776 22.4716C289.776 20.9716 290.017 19.7244 290.5 18.7301C290.983 17.7301 291.625 16.983 292.426 16.4886C293.233 15.9886 294.116 15.7386 295.077 15.7386C295.81 15.7386 296.42 15.8636 296.909 16.1136C297.403 16.358 297.801 16.6648 298.102 17.0341C298.409 17.3977 298.642 17.7557 298.801 18.108H298.912V11.5455H302.534V29H298.955V26.9034H298.801C298.631 27.267 298.389 27.6278 298.077 27.9858C297.77 28.3381 297.369 28.6307 296.875 28.8636C296.386 29.0966 295.79 29.2131 295.085 29.2131ZM296.236 26.3239C296.821 26.3239 297.315 26.1648 297.719 25.8466C298.128 25.5227 298.44 25.071 298.656 24.4915C298.878 23.9119 298.989 23.233 298.989 22.4545C298.989 21.6761 298.881 21 298.665 20.4261C298.449 19.8523 298.136 19.4091 297.727 19.0966C297.318 18.7841 296.821 18.6278 296.236 18.6278C295.639 18.6278 295.136 18.7898 294.727 19.1136C294.318 19.4375 294.009 19.8864 293.798 20.4602C293.588 21.0341 293.483 21.6989 293.483 22.4545C293.483 23.2159 293.588 23.8892 293.798 24.4744C294.014 25.054 294.324 25.5085 294.727 25.8381C295.136 26.1619 295.639 26.3239 296.236 26.3239ZM309.252 29.2472C308.417 29.2472 307.673 29.1023 307.019 28.8125C306.366 28.517 305.849 28.0824 305.468 27.5085C305.093 26.929 304.906 26.2074 304.906 25.3438C304.906 24.6165 305.039 24.0057 305.306 23.5114C305.573 23.017 305.937 22.6193 306.397 22.3182C306.857 22.017 307.38 21.7898 307.965 21.6364C308.556 21.483 309.175 21.375 309.823 21.3125C310.585 21.233 311.198 21.1591 311.664 21.0909C312.13 21.017 312.468 20.9091 312.678 20.767C312.888 20.625 312.994 20.4148 312.994 20.1364V20.0852C312.994 19.5455 312.823 19.1278 312.482 18.8324C312.147 18.5369 311.67 18.3892 311.05 18.3892C310.397 18.3892 309.877 18.5341 309.491 18.8239C309.104 19.108 308.849 19.4659 308.724 19.8977L305.366 19.625C305.536 18.8295 305.871 18.142 306.371 17.5625C306.871 16.9773 307.516 16.5284 308.306 16.2159C309.102 15.8977 310.022 15.7386 311.067 15.7386C311.795 15.7386 312.491 15.8239 313.156 15.9943C313.826 16.1648 314.42 16.429 314.937 16.7869C315.46 17.1449 315.871 17.6051 316.173 18.1676C316.474 18.7244 316.624 19.392 316.624 20.1705V29H313.181V27.1847H313.079C312.869 27.5938 312.587 27.9545 312.235 28.267C311.883 28.5739 311.46 28.8153 310.965 28.9915C310.471 29.1619 309.9 29.2472 309.252 29.2472ZM310.292 26.7415C310.826 26.7415 311.298 26.6364 311.707 26.4261C312.116 26.2102 312.437 25.9205 312.67 25.5568C312.903 25.1932 313.019 24.7812 313.019 24.321V22.9318C312.906 23.0057 312.749 23.0739 312.55 23.1364C312.357 23.1932 312.138 23.2472 311.894 23.2983C311.65 23.3437 311.406 23.3864 311.161 23.4261C310.917 23.4602 310.695 23.4915 310.496 23.5199C310.07 23.5824 309.698 23.6818 309.38 23.8182C309.062 23.9545 308.815 24.1392 308.638 24.3722C308.462 24.5994 308.374 24.8835 308.374 25.2244C308.374 25.7188 308.553 26.0966 308.911 26.358C309.275 26.6136 309.735 26.7415 310.292 26.7415ZM324.265 29.2131C323.271 29.2131 322.37 28.9574 321.563 28.446C320.762 27.929 320.126 27.1705 319.654 26.1705C319.188 25.1648 318.955 23.9318 318.955 22.4716C318.955 20.9716 319.197 19.7244 319.68 18.7301C320.163 17.7301 320.805 16.983 321.606 16.4886C322.413 15.9886 323.296 15.7386 324.256 15.7386C324.989 15.7386 325.6 15.8636 326.089 16.1136C326.583 16.358 326.981 16.6648 327.282 17.0341C327.589 17.3977 327.822 17.7557 327.981 18.108H328.092V11.5455H331.714V29H328.134V26.9034H327.981C327.81 27.267 327.569 27.6278 327.256 27.9858C326.95 28.3381 326.549 28.6307 326.055 28.8636C325.566 29.0966 324.969 29.2131 324.265 29.2131ZM325.415 26.3239C326.001 26.3239 326.495 26.1648 326.898 25.8466C327.308 25.5227 327.62 25.071 327.836 24.4915C328.058 23.9119 328.168 23.233 328.168 22.4545C328.168 21.6761 328.06 21 327.844 20.4261C327.629 19.8523 327.316 19.4091 326.907 19.0966C326.498 18.7841 326.001 18.6278 325.415 18.6278C324.819 18.6278 324.316 18.7898 323.907 19.1136C323.498 19.4375 323.188 19.8864 322.978 20.4602C322.768 21.0341 322.663 21.6989 322.663 22.4545C322.663 23.2159 322.768 23.8892 322.978 24.4744C323.194 25.054 323.504 25.5085 323.907 25.8381C324.316 26.1619 324.819 26.3239 325.415 26.3239ZM340.665 29.2557C339.318 29.2557 338.159 28.983 337.188 28.4375C336.222 27.8864 335.477 27.108 334.955 26.1023C334.432 25.0909 334.17 23.8949 334.17 22.5142C334.17 21.1676 334.432 19.9858 334.955 18.9688C335.477 17.9517 336.213 17.1591 337.162 16.5909C338.116 16.0227 339.236 15.7386 340.52 15.7386C341.384 15.7386 342.188 15.8778 342.932 16.1562C343.682 16.429 344.335 16.8409 344.892 17.392C345.455 17.9432 345.892 18.6364 346.205 19.4716C346.517 20.3011 346.673 21.2727 346.673 22.3864V23.3835H335.619V21.1335H343.256C343.256 20.6108 343.142 20.1477 342.915 19.7443C342.688 19.3409 342.372 19.0256 341.969 18.7983C341.571 18.5653 341.108 18.4489 340.58 18.4489C340.028 18.4489 339.54 18.5767 339.114 18.8324C338.693 19.0824 338.364 19.4205 338.125 19.8466C337.886 20.267 337.764 20.7358 337.759 21.2528V23.392C337.759 24.0398 337.878 24.5994 338.116 25.071C338.361 25.5426 338.705 25.9062 339.148 26.1619C339.591 26.4176 340.116 26.5455 340.724 26.5455C341.128 26.5455 341.497 26.4886 341.832 26.375C342.168 26.2614 342.455 26.0909 342.693 25.8636C342.932 25.6364 343.114 25.358 343.239 25.0284L346.597 25.25C346.426 26.0568 346.077 26.7614 345.548 27.3636C345.026 27.9602 344.349 28.4261 343.52 28.7614C342.696 29.0909 341.744 29.2557 340.665 29.2557ZM359.935 19.642L356.611 19.8466C356.554 19.5625 356.432 19.3068 356.244 19.0795C356.057 18.8466 355.81 18.6619 355.503 18.5256C355.202 18.3835 354.841 18.3125 354.42 18.3125C353.858 18.3125 353.384 18.4318 352.997 18.6705C352.611 18.9034 352.418 19.2159 352.418 19.608C352.418 19.9205 352.543 20.1847 352.793 20.4006C353.043 20.6165 353.472 20.7898 354.08 20.9205L356.449 21.3977C357.722 21.6591 358.67 22.0795 359.295 22.6591C359.92 23.2386 360.233 24 360.233 24.9432C360.233 25.8011 359.98 26.554 359.474 27.2017C358.974 27.8494 358.287 28.3551 357.412 28.7188C356.543 29.0767 355.54 29.2557 354.403 29.2557C352.67 29.2557 351.29 28.8949 350.261 28.1733C349.239 27.446 348.639 26.4574 348.463 25.2074L352.034 25.0199C352.142 25.5483 352.403 25.9517 352.818 26.2301C353.233 26.5028 353.764 26.6392 354.412 26.6392C355.048 26.6392 355.56 26.517 355.946 26.2727C356.338 26.0227 356.537 25.7017 356.543 25.3097C356.537 24.9801 356.398 24.7102 356.125 24.5C355.852 24.2841 355.432 24.1193 354.864 24.0057L352.597 23.554C351.318 23.2983 350.366 22.8551 349.741 22.2244C349.122 21.5937 348.812 20.7898 348.812 19.8125C348.812 18.9716 349.04 18.2472 349.494 17.6392C349.955 17.0312 350.599 16.5625 351.429 16.233C352.264 15.9034 353.241 15.7386 354.361 15.7386C356.014 15.7386 357.315 16.0881 358.264 16.7869C359.219 17.4858 359.776 18.4375 359.935 19.642ZM421.648 11.5455V29H418.46L410.866 18.0142H410.739V29H407.048V11.5455H410.287L417.821 22.5227H417.974V11.5455H421.648ZM430.594 29.2557C429.248 29.2557 428.089 28.983 427.117 28.4375C426.151 27.8864 425.407 27.108 424.884 26.1023C424.362 25.0909 424.1 23.8949 424.1 22.5142C424.1 21.1676 424.362 19.9858 424.884 18.9688C425.407 17.9517 426.143 17.1591 427.092 16.5909C428.046 16.0227 429.165 15.7386 430.45 15.7386C431.313 15.7386 432.117 15.8778 432.862 16.1562C433.612 16.429 434.265 16.8409 434.822 17.392C435.384 17.9432 435.822 18.6364 436.134 19.4716C436.447 20.3011 436.603 21.2727 436.603 22.3864V23.3835H425.549V21.1335H433.185C433.185 20.6108 433.072 20.1477 432.844 19.7443C432.617 19.3409 432.302 19.0256 431.898 18.7983C431.501 18.5653 431.038 18.4489 430.509 18.4489C429.958 18.4489 429.469 18.5767 429.043 18.8324C428.623 19.0824 428.293 19.4205 428.055 19.8466C427.816 20.267 427.694 20.7358 427.688 21.2528V23.392C427.688 24.0398 427.808 24.5994 428.046 25.071C428.29 25.5426 428.634 25.9062 429.077 26.1619C429.521 26.4176 430.046 26.5455 430.654 26.5455C431.058 26.5455 431.427 26.4886 431.762 26.375C432.097 26.2614 432.384 26.0909 432.623 25.8636C432.862 25.6364 433.043 25.358 433.168 25.0284L436.526 25.25C436.356 26.0568 436.006 26.7614 435.478 27.3636C434.955 27.9602 434.279 28.4261 433.45 28.7614C432.626 29.0909 431.674 29.2557 430.594 29.2557ZM441.461 29L437.898 15.9091H441.572L443.6 24.7045H443.719L445.833 15.9091H449.438L451.586 24.6534H451.697L453.691 15.9091H457.356L453.802 29H449.958L447.708 20.767H447.546L445.296 29H441.461ZM467.924 29H463.969L469.995 11.5455H474.751L480.768 29H476.813L472.441 15.5341H472.305L467.924 29ZM467.677 22.1392H477.018V25.0199H467.677V22.1392ZM482.8 29V15.9091H486.32V18.1932H486.457C486.695 17.3807 487.096 16.767 487.658 16.3523C488.221 15.9318 488.869 15.7216 489.602 15.7216C489.783 15.7216 489.979 15.733 490.19 15.7557C490.4 15.7784 490.585 15.8097 490.744 15.8494V19.071C490.573 19.0199 490.337 18.9744 490.036 18.9347C489.735 18.8949 489.46 18.875 489.21 18.875C488.675 18.875 488.198 18.9915 487.778 19.2244C487.363 19.4517 487.033 19.7699 486.789 20.179C486.55 20.5881 486.431 21.0597 486.431 21.5938V29H482.8ZM492.621 29V15.9091H496.141V18.1932H496.277C496.516 17.3807 496.916 16.767 497.479 16.3523C498.041 15.9318 498.689 15.7216 499.422 15.7216C499.604 15.7216 499.8 15.733 500.01 15.7557C500.22 15.7784 500.405 15.8097 500.564 15.8494V19.071C500.393 19.0199 500.158 18.9744 499.857 18.9347C499.555 18.8949 499.28 18.875 499.03 18.875C498.496 18.875 498.018 18.9915 497.598 19.2244C497.183 19.4517 496.854 19.7699 496.609 20.179C496.371 20.5881 496.251 21.0597 496.251 21.5938V29H492.621ZM502.441 29V15.9091H506.072V29H502.441ZM504.265 14.2216C503.725 14.2216 503.262 14.0426 502.876 13.6847C502.495 13.321 502.305 12.8864 502.305 12.3807C502.305 11.8807 502.495 11.4517 502.876 11.0938C503.262 10.7301 503.725 10.5483 504.265 10.5483C504.805 10.5483 505.265 10.7301 505.646 11.0938C506.032 11.4517 506.225 11.8807 506.225 12.3807C506.225 12.8864 506.032 13.321 505.646 13.6847C505.265 14.0426 504.805 14.2216 504.265 14.2216ZM521.185 15.9091L516.608 29H512.517L507.94 15.9091H511.776L514.494 25.2756H514.631L517.341 15.9091H521.185ZM526.424 29.2472C525.589 29.2472 524.844 29.1023 524.191 28.8125C523.538 28.517 523.021 28.0824 522.64 27.5085C522.265 26.929 522.077 26.2074 522.077 25.3438C522.077 24.6165 522.211 24.0057 522.478 23.5114C522.745 23.017 523.109 22.6193 523.569 22.3182C524.029 22.017 524.552 21.7898 525.137 21.6364C525.728 21.483 526.347 21.375 526.995 21.3125C527.756 21.233 528.37 21.1591 528.836 21.0909C529.302 21.017 529.64 20.9091 529.85 20.767C530.06 20.625 530.165 20.4148 530.165 20.1364V20.0852C530.165 19.5455 529.995 19.1278 529.654 18.8324C529.319 18.5369 528.842 18.3892 528.222 18.3892C527.569 18.3892 527.049 18.5341 526.663 18.8239C526.276 19.108 526.021 19.4659 525.896 19.8977L522.538 19.625C522.708 18.8295 523.043 18.142 523.543 17.5625C524.043 16.9773 524.688 16.5284 525.478 16.2159C526.273 15.8977 527.194 15.7386 528.239 15.7386C528.967 15.7386 529.663 15.8239 530.327 15.9943C530.998 16.1648 531.592 16.429 532.109 16.7869C532.631 17.1449 533.043 17.6051 533.344 18.1676C533.646 18.7244 533.796 19.392 533.796 20.1705V29H530.353V27.1847H530.251C530.04 27.5938 529.759 27.9545 529.407 28.267C529.055 28.5739 528.631 28.8153 528.137 28.9915C527.643 29.1619 527.072 29.2472 526.424 29.2472ZM527.464 26.7415C527.998 26.7415 528.469 26.6364 528.879 26.4261C529.288 26.2102 529.609 25.9205 529.842 25.5568C530.075 25.1932 530.191 24.7812 530.191 24.321V22.9318C530.077 23.0057 529.921 23.0739 529.722 23.1364C529.529 23.1932 529.31 23.2472 529.066 23.2983C528.822 23.3437 528.577 23.3864 528.333 23.4261C528.089 23.4602 527.867 23.4915 527.668 23.5199C527.242 23.5824 526.87 23.6818 526.552 23.8182C526.234 23.9545 525.987 24.1392 525.81 24.3722C525.634 24.5994 525.546 24.8835 525.546 25.2244C525.546 25.7188 525.725 26.0966 526.083 26.358C526.447 26.6136 526.907 26.7415 527.464 26.7415ZM540.244 11.5455V29H536.613V11.5455H540.244ZM554.044 19.642L550.72 19.8466C550.663 19.5625 550.541 19.3068 550.354 19.0795C550.166 18.8466 549.919 18.6619 549.612 18.5256C549.311 18.3835 548.95 18.3125 548.53 18.3125C547.967 18.3125 547.493 18.4318 547.107 18.6705C546.72 18.9034 546.527 19.2159 546.527 19.608C546.527 19.9205 546.652 20.1847 546.902 20.4006C547.152 20.6165 547.581 20.7898 548.189 20.9205L550.558 21.3977C551.831 21.6591 552.78 22.0795 553.405 22.6591C554.03 23.2386 554.342 24 554.342 24.9432C554.342 25.8011 554.089 26.554 553.584 27.2017C553.084 27.8494 552.396 28.3551 551.521 28.7188C550.652 29.0767 549.649 29.2557 548.513 29.2557C546.78 29.2557 545.399 28.8949 544.371 28.1733C543.348 27.446 542.749 26.4574 542.572 25.2074L546.143 25.0199C546.251 25.5483 546.513 25.9517 546.928 26.2301C547.342 26.5028 547.874 26.6392 548.521 26.6392C549.158 26.6392 549.669 26.517 550.055 26.2727C550.447 26.0227 550.646 25.7017 550.652 25.3097C550.646 24.9801 550.507 24.7102 550.234 24.5C549.962 24.2841 549.541 24.1193 548.973 24.0057L546.706 23.554C545.428 23.2983 544.476 22.8551 543.851 22.2244C543.232 21.5937 542.922 20.7898 542.922 19.8125C542.922 18.9716 543.149 18.2472 543.604 17.6392C544.064 17.0312 544.709 16.5625 545.538 16.233C546.374 15.9034 547.351 15.7386 548.47 15.7386C550.124 15.7386 551.425 16.0881 552.374 16.7869C553.328 17.4858 553.885 18.4375 554.044 19.642ZM617.304 11.5455V29H614.116L606.523 18.0142H606.395V29H602.705V11.5455H605.943L613.477 22.5227H613.631V11.5455H617.304ZM626.2 29.2557C624.876 29.2557 623.731 28.9744 622.765 28.4119C621.805 27.8437 621.063 27.054 620.54 26.0426C620.018 25.0256 619.756 23.8466 619.756 22.5057C619.756 21.1534 620.018 19.9716 620.54 18.9602C621.063 17.9432 621.805 17.1534 622.765 16.5909C623.731 16.0227 624.876 15.7386 626.2 15.7386C627.523 15.7386 628.665 16.0227 629.626 16.5909C630.592 17.1534 631.336 17.9432 631.859 18.9602C632.381 19.9716 632.643 21.1534 632.643 22.5057C632.643 23.8466 632.381 25.0256 631.859 26.0426C631.336 27.054 630.592 27.8437 629.626 28.4119C628.665 28.9744 627.523 29.2557 626.2 29.2557ZM626.217 26.4432C626.819 26.4432 627.322 26.2727 627.725 25.9318C628.129 25.5852 628.433 25.1136 628.637 24.517C628.847 23.9205 628.952 23.2415 628.952 22.4801C628.952 21.7188 628.847 21.0398 628.637 20.4432C628.433 19.8466 628.129 19.375 627.725 19.0284C627.322 18.6818 626.819 18.5085 626.217 18.5085C625.609 18.5085 625.097 18.6818 624.683 19.0284C624.273 19.375 623.964 19.8466 623.754 20.4432C623.549 21.0398 623.447 21.7188 623.447 22.4801C623.447 23.2415 623.549 23.9205 623.754 24.517C623.964 25.1136 624.273 25.5852 624.683 25.9318C625.097 26.2727 625.609 26.4432 626.217 26.4432ZM646.786 15.9091L642.21 29H638.119L633.542 15.9091H637.377L640.096 25.2756H640.232L642.942 15.9091H646.786ZM654.188 29.2557C652.842 29.2557 651.683 28.983 650.711 28.4375C649.745 27.8864 649.001 27.108 648.478 26.1023C647.955 25.0909 647.694 23.8949 647.694 22.5142C647.694 21.1676 647.955 19.9858 648.478 18.9688C649.001 17.9517 649.737 17.1591 650.685 16.5909C651.64 16.0227 652.759 15.7386 654.043 15.7386C654.907 15.7386 655.711 15.8778 656.455 16.1562C657.205 16.429 657.859 16.8409 658.415 17.392C658.978 17.9432 659.415 18.6364 659.728 19.4716C660.04 20.3011 660.197 21.2727 660.197 22.3864V23.3835H649.143V21.1335H656.779C656.779 20.6108 656.665 20.1477 656.438 19.7443C656.211 19.3409 655.896 19.0256 655.492 18.7983C655.094 18.5653 654.631 18.4489 654.103 18.4489C653.552 18.4489 653.063 18.5767 652.637 18.8324C652.217 19.0824 651.887 19.4205 651.648 19.8466C651.41 20.267 651.288 20.7358 651.282 21.2528V23.392C651.282 24.0398 651.401 24.5994 651.64 25.071C651.884 25.5426 652.228 25.9062 652.671 26.1619C653.114 26.4176 653.64 26.5455 654.248 26.5455C654.651 26.5455 655.021 26.4886 655.356 26.375C655.691 26.2614 655.978 26.0909 656.217 25.8636C656.455 25.6364 656.637 25.358 656.762 25.0284L660.12 25.25C659.95 26.0568 659.6 26.7614 659.072 27.3636C658.549 27.9602 657.873 28.4261 657.043 28.7614C656.219 29.0909 655.268 29.2557 654.188 29.2557ZM667.39 29.2131C666.396 29.2131 665.495 28.9574 664.688 28.446C663.887 27.929 663.251 27.1705 662.779 26.1705C662.313 25.1648 662.08 23.9318 662.08 22.4716C662.08 20.9716 662.322 19.7244 662.805 18.7301C663.288 17.7301 663.93 16.983 664.731 16.4886C665.538 15.9886 666.421 15.7386 667.381 15.7386C668.114 15.7386 668.725 15.8636 669.214 16.1136C669.708 16.358 670.106 16.6648 670.407 17.0341C670.714 17.3977 670.947 17.7557 671.106 18.108H671.217V11.5455H674.839V29H671.259V26.9034H671.106C670.935 27.267 670.694 27.6278 670.381 27.9858C670.075 28.3381 669.674 28.6307 669.18 28.8636C668.691 29.0966 668.094 29.2131 667.39 29.2131ZM668.54 26.3239C669.126 26.3239 669.62 26.1648 670.023 25.8466C670.433 25.5227 670.745 25.071 670.961 24.4915C671.183 23.9119 671.293 23.233 671.293 22.4545C671.293 21.6761 671.185 21 670.969 20.4261C670.754 19.8523 670.441 19.4091 670.032 19.0966C669.623 18.7841 669.126 18.6278 668.54 18.6278C667.944 18.6278 667.441 18.7898 667.032 19.1136C666.623 19.4375 666.313 19.8864 666.103 20.4602C665.893 21.0341 665.788 21.6989 665.788 22.4545C665.788 23.2159 665.893 23.8892 666.103 24.4744C666.319 25.054 666.629 25.5085 667.032 25.8381C667.441 26.1619 667.944 26.3239 668.54 26.3239ZM681.557 29.2472C680.722 29.2472 679.977 29.1023 679.324 28.8125C678.67 28.517 678.153 28.0824 677.773 27.5085C677.398 26.929 677.21 26.2074 677.21 25.3438C677.21 24.6165 677.344 24.0057 677.611 23.5114C677.878 23.017 678.241 22.6193 678.702 22.3182C679.162 22.017 679.685 21.7898 680.27 21.6364C680.861 21.483 681.48 21.375 682.128 21.3125C682.889 21.233 683.503 21.1591 683.969 21.0909C684.435 21.017 684.773 20.9091 684.983 20.767C685.193 20.625 685.298 20.4148 685.298 20.1364V20.0852C685.298 19.5455 685.128 19.1278 684.787 18.8324C684.452 18.5369 683.974 18.3892 683.355 18.3892C682.702 18.3892 682.182 18.5341 681.795 18.8239C681.409 19.108 681.153 19.4659 681.028 19.8977L677.67 19.625C677.841 18.8295 678.176 18.142 678.676 17.5625C679.176 16.9773 679.821 16.5284 680.611 16.2159C681.406 15.8977 682.327 15.7386 683.372 15.7386C684.099 15.7386 684.795 15.8239 685.46 15.9943C686.131 16.1648 686.724 16.429 687.241 16.7869C687.764 17.1449 688.176 17.6051 688.477 18.1676C688.778 18.7244 688.929 19.392 688.929 20.1705V29H685.486V27.1847H685.384C685.173 27.5938 684.892 27.9545 684.54 28.267C684.188 28.5739 683.764 28.8153 683.27 28.9915C682.776 29.1619 682.205 29.2472 681.557 29.2472ZM682.597 26.7415C683.131 26.7415 683.602 26.6364 684.011 26.4261C684.42 26.2102 684.741 25.9205 684.974 25.5568C685.207 25.1932 685.324 24.7812 685.324 24.321V22.9318C685.21 23.0057 685.054 23.0739 684.855 23.1364C684.662 23.1932 684.443 23.2472 684.199 23.2983C683.955 23.3437 683.71 23.3864 683.466 23.4261C683.222 23.4602 683 23.4915 682.801 23.5199C682.375 23.5824 682.003 23.6818 681.685 23.8182C681.366 23.9545 681.119 24.1392 680.943 24.3722C680.767 24.5994 680.679 24.8835 680.679 25.2244C680.679 25.7188 680.858 26.0966 681.216 26.358C681.58 26.6136 682.04 26.7415 682.597 26.7415ZM696.57 29.2131C695.575 29.2131 694.675 28.9574 693.868 28.446C693.067 27.929 692.43 27.1705 691.959 26.1705C691.493 25.1648 691.26 23.9318 691.26 22.4716C691.26 20.9716 691.501 19.7244 691.984 18.7301C692.467 17.7301 693.109 16.983 693.911 16.4886C694.717 15.9886 695.601 15.7386 696.561 15.7386C697.294 15.7386 697.905 15.8636 698.393 16.1136C698.888 16.358 699.286 16.6648 699.587 17.0341C699.893 17.3977 700.126 17.7557 700.286 18.108H700.396V11.5455H704.018V29H700.439V26.9034H700.286C700.115 27.267 699.874 27.6278 699.561 27.9858C699.254 28.3381 698.854 28.6307 698.359 28.8636C697.871 29.0966 697.274 29.2131 696.57 29.2131ZM697.72 26.3239C698.305 26.3239 698.8 26.1648 699.203 25.8466C699.612 25.5227 699.925 25.071 700.141 24.4915C700.362 23.9119 700.473 23.233 700.473 22.4545C700.473 21.6761 700.365 21 700.149 20.4261C699.933 19.8523 699.621 19.4091 699.212 19.0966C698.803 18.7841 698.305 18.6278 697.72 18.6278C697.124 18.6278 696.621 18.7898 696.212 19.1136C695.803 19.4375 695.493 19.8864 695.283 20.4602C695.072 21.0341 694.967 21.6989 694.967 22.4545C694.967 23.2159 695.072 23.8892 695.283 24.4744C695.499 25.054 695.808 25.5085 696.212 25.8381C696.621 26.1619 697.124 26.3239 697.72 26.3239ZM712.969 29.2557C711.623 29.2557 710.464 28.983 709.492 28.4375C708.526 27.8864 707.782 27.108 707.259 26.1023C706.737 25.0909 706.475 23.8949 706.475 22.5142C706.475 21.1676 706.737 19.9858 707.259 18.9688C707.782 17.9517 708.518 17.1591 709.467 16.5909C710.421 16.0227 711.54 15.7386 712.825 15.7386C713.688 15.7386 714.492 15.8778 715.237 16.1562C715.987 16.429 716.64 16.8409 717.197 17.392C717.759 17.9432 718.197 18.6364 718.509 19.4716C718.822 20.3011 718.978 21.2727 718.978 22.3864V23.3835H707.924V21.1335H715.56C715.56 20.6108 715.447 20.1477 715.219 19.7443C714.992 19.3409 714.677 19.0256 714.273 18.7983C713.876 18.5653 713.413 18.4489 712.884 18.4489C712.333 18.4489 711.844 18.5767 711.418 18.8324C710.998 19.0824 710.668 19.4205 710.43 19.8466C710.191 20.267 710.069 20.7358 710.063 21.2528V23.392C710.063 24.0398 710.183 24.5994 710.421 25.071C710.665 25.5426 711.009 25.9062 711.452 26.1619C711.896 26.4176 712.421 26.5455 713.029 26.5455C713.433 26.5455 713.802 26.4886 714.137 26.375C714.472 26.2614 714.759 26.0909 714.998 25.8636C715.237 25.6364 715.418 25.358 715.543 25.0284L718.901 25.25C718.731 26.0568 718.381 26.7614 717.853 27.3636C717.33 27.9602 716.654 28.4261 715.825 28.7614C715.001 29.0909 714.049 29.2557 712.969 29.2557ZM732.239 19.642L728.915 19.8466C728.859 19.5625 728.737 19.3068 728.549 19.0795C728.362 18.8466 728.114 18.6619 727.808 18.5256C727.506 18.3835 727.146 18.3125 726.725 18.3125C726.163 18.3125 725.688 18.4318 725.302 18.6705C724.915 18.9034 724.722 19.2159 724.722 19.608C724.722 19.9205 724.847 20.1847 725.097 20.4006C725.347 20.6165 725.776 20.7898 726.384 20.9205L728.754 21.3977C730.026 21.6591 730.975 22.0795 731.6 22.6591C732.225 23.2386 732.538 24 732.538 24.9432C732.538 25.8011 732.285 26.554 731.779 27.2017C731.279 27.8494 730.592 28.3551 729.717 28.7188C728.847 29.0767 727.844 29.2557 726.708 29.2557C724.975 29.2557 723.594 28.8949 722.566 28.1733C721.543 27.446 720.944 26.4574 720.768 25.2074L724.339 25.0199C724.447 25.5483 724.708 25.9517 725.123 26.2301C725.538 26.5028 726.069 26.6392 726.717 26.6392C727.353 26.6392 727.864 26.517 728.251 26.2727C728.643 26.0227 728.842 25.7017 728.847 25.3097C728.842 24.9801 728.702 24.7102 728.43 24.5C728.157 24.2841 727.737 24.1193 727.168 24.0057L724.901 23.554C723.623 23.2983 722.671 22.8551 722.046 22.2244C721.427 21.5937 721.117 20.7898 721.117 19.8125C721.117 18.9716 721.344 18.2472 721.799 17.6392C722.259 17.0312 722.904 16.5625 723.734 16.233C724.569 15.9034 725.546 15.7386 726.665 15.7386C728.319 15.7386 729.62 16.0881 730.569 16.7869C731.523 17.4858 732.08 18.4375 732.239 19.642ZM795.499 11.5455V29H792.312L784.718 18.0142H784.59V29H780.9V11.5455H784.138L791.673 22.5227H791.826V11.5455H795.499ZM804.446 29.2557C803.099 29.2557 801.94 28.983 800.969 28.4375C800.003 27.8864 799.259 27.108 798.736 26.1023C798.213 25.0909 797.952 23.8949 797.952 22.5142C797.952 21.1676 798.213 19.9858 798.736 18.9688C799.259 17.9517 799.994 17.1591 800.943 16.5909C801.898 16.0227 803.017 15.7386 804.301 15.7386C805.165 15.7386 805.969 15.8778 806.713 16.1562C807.463 16.429 808.116 16.8409 808.673 17.392C809.236 17.9432 809.673 18.6364 809.986 19.4716C810.298 20.3011 810.455 21.2727 810.455 22.3864V23.3835H799.401V21.1335H807.037C807.037 20.6108 806.923 20.1477 806.696 19.7443C806.469 19.3409 806.153 19.0256 805.75 18.7983C805.352 18.5653 804.889 18.4489 804.361 18.4489C803.81 18.4489 803.321 18.5767 802.895 18.8324C802.474 19.0824 802.145 19.4205 801.906 19.8466C801.668 20.267 801.545 20.7358 801.54 21.2528V23.392C801.54 24.0398 801.659 24.5994 801.898 25.071C802.142 25.5426 802.486 25.9062 802.929 26.1619C803.372 26.4176 803.898 26.5455 804.506 26.5455C804.909 26.5455 805.278 26.4886 805.614 26.375C805.949 26.2614 806.236 26.0909 806.474 25.8636C806.713 25.6364 806.895 25.358 807.02 25.0284L810.378 25.25C810.207 26.0568 809.858 26.7614 809.33 27.3636C808.807 27.9602 808.131 28.4261 807.301 28.7614C806.477 29.0909 805.526 29.2557 804.446 29.2557ZM815.312 29L811.75 15.9091H815.423L817.452 24.7045H817.571L819.685 15.9091H823.29L825.438 24.6534H825.548L827.543 15.9091H831.207L827.653 29H823.81L821.56 20.767H821.398L819.148 29H815.312ZM841.776 29H837.821L843.847 11.5455H848.602L854.619 29H850.665L846.293 15.5341H846.156L841.776 29ZM841.528 22.1392H850.869V25.0199H841.528V22.1392ZM856.652 29V15.9091H860.172V18.1932H860.308C860.547 17.3807 860.947 16.767 861.51 16.3523C862.072 15.9318 862.72 15.7216 863.453 15.7216C863.635 15.7216 863.831 15.733 864.041 15.7557C864.251 15.7784 864.436 15.8097 864.595 15.8494V19.071C864.425 19.0199 864.189 18.9744 863.888 18.9347C863.587 18.8949 863.311 18.875 863.061 18.875C862.527 18.875 862.05 18.9915 861.629 19.2244C861.214 19.4517 860.885 19.7699 860.641 20.179C860.402 20.5881 860.283 21.0597 860.283 21.5938V29H856.652ZM866.472 29V15.9091H869.992V18.1932H870.129C870.367 17.3807 870.768 16.767 871.33 16.3523C871.893 15.9318 872.54 15.7216 873.273 15.7216C873.455 15.7216 873.651 15.733 873.862 15.7557C874.072 15.7784 874.256 15.8097 874.415 15.8494V19.071C874.245 19.0199 874.009 18.9744 873.708 18.9347C873.407 18.8949 873.131 18.875 872.881 18.875C872.347 18.875 871.87 18.9915 871.45 19.2244C871.035 19.4517 870.705 19.7699 870.461 20.179C870.222 20.5881 870.103 21.0597 870.103 21.5938V29H866.472ZM876.293 29V15.9091H879.923V29H876.293ZM878.116 14.2216C877.577 14.2216 877.114 14.0426 876.727 13.6847C876.347 13.321 876.156 12.8864 876.156 12.3807C876.156 11.8807 876.347 11.4517 876.727 11.0938C877.114 10.7301 877.577 10.5483 878.116 10.5483C878.656 10.5483 879.116 10.7301 879.497 11.0938C879.884 11.4517 880.077 11.8807 880.077 12.3807C880.077 12.8864 879.884 13.321 879.497 13.6847C879.116 14.0426 878.656 14.2216 878.116 14.2216ZM895.036 15.9091L890.46 29H886.369L881.792 15.9091H885.627L888.346 25.2756H888.482L891.192 15.9091H895.036ZM900.276 29.2472C899.44 29.2472 898.696 29.1023 898.043 28.8125C897.389 28.517 896.872 28.0824 896.491 27.5085C896.116 26.929 895.929 26.2074 895.929 25.3438C895.929 24.6165 896.063 24.0057 896.33 23.5114C896.597 23.017 896.96 22.6193 897.42 22.3182C897.881 22.017 898.403 21.7898 898.989 21.6364C899.58 21.483 900.199 21.375 900.847 21.3125C901.608 21.233 902.222 21.1591 902.688 21.0909C903.153 21.017 903.491 20.9091 903.702 20.767C903.912 20.625 904.017 20.4148 904.017 20.1364V20.0852C904.017 19.5455 903.847 19.1278 903.506 18.8324C903.17 18.5369 902.693 18.3892 902.074 18.3892C901.42 18.3892 900.901 18.5341 900.514 18.8239C900.128 19.108 899.872 19.4659 899.747 19.8977L896.389 19.625C896.56 18.8295 896.895 18.142 897.395 17.5625C897.895 16.9773 898.54 16.5284 899.33 16.2159C900.125 15.8977 901.045 15.7386 902.091 15.7386C902.818 15.7386 903.514 15.8239 904.179 15.9943C904.849 16.1648 905.443 16.429 905.96 16.7869C906.483 17.1449 906.895 17.6051 907.196 18.1676C907.497 18.7244 907.648 19.392 907.648 20.1705V29H904.205V27.1847H904.102C903.892 27.5938 903.611 27.9545 903.259 28.267C902.906 28.5739 902.483 28.8153 901.989 28.9915C901.494 29.1619 900.923 29.2472 900.276 29.2472ZM901.315 26.7415C901.849 26.7415 902.321 26.6364 902.73 26.4261C903.139 26.2102 903.46 25.9205 903.693 25.5568C903.926 25.1932 904.043 24.7812 904.043 24.321V22.9318C903.929 23.0057 903.773 23.0739 903.574 23.1364C903.381 23.1932 903.162 23.2472 902.918 23.2983C902.673 23.3437 902.429 23.3864 902.185 23.4261C901.94 23.4602 901.719 23.4915 901.52 23.5199C901.094 23.5824 900.722 23.6818 900.403 23.8182C900.085 23.9545 899.838 24.1392 899.662 24.3722C899.486 24.5994 899.398 24.8835 899.398 25.2244C899.398 25.7188 899.577 26.0966 899.935 26.358C900.298 26.6136 900.759 26.7415 901.315 26.7415ZM914.095 11.5455V29H910.464V11.5455H914.095ZM927.896 19.642L924.572 19.8466C924.515 19.5625 924.393 19.3068 924.205 19.0795C924.018 18.8466 923.771 18.6619 923.464 18.5256C923.163 18.3835 922.802 18.3125 922.381 18.3125C921.819 18.3125 921.344 18.4318 920.958 18.6705C920.572 18.9034 920.379 19.2159 920.379 19.608C920.379 19.9205 920.504 20.1847 920.754 20.4006C921.004 20.6165 921.433 20.7898 922.04 20.9205L924.41 21.3977C925.683 21.6591 926.631 22.0795 927.256 22.6591C927.881 23.2386 928.194 24 928.194 24.9432C928.194 25.8011 927.941 26.554 927.435 27.2017C926.935 27.8494 926.248 28.3551 925.373 28.7188C924.504 29.0767 923.501 29.2557 922.364 29.2557C920.631 29.2557 919.251 28.8949 918.222 28.1733C917.2 27.446 916.6 26.4574 916.424 25.2074L919.995 25.0199C920.103 25.5483 920.364 25.9517 920.779 26.2301C921.194 26.5028 921.725 26.6392 922.373 26.6392C923.009 26.6392 923.521 26.517 923.907 26.2727C924.299 26.0227 924.498 25.7017 924.504 25.3097C924.498 24.9801 924.359 24.7102 924.086 24.5C923.813 24.2841 923.393 24.1193 922.825 24.0057L920.558 23.554C919.279 23.2983 918.327 22.8551 917.702 22.2244C917.083 21.5937 916.773 20.7898 916.773 19.8125C916.773 18.9716 917.001 18.2472 917.455 17.6392C917.915 17.0312 918.56 16.5625 919.39 16.233C920.225 15.9034 921.202 15.7386 922.322 15.7386C923.975 15.7386 925.276 16.0881 926.225 16.7869C927.18 17.4858 927.737 18.4375 927.896 19.642ZM991.156 11.5455V29H987.968L980.374 18.0142H980.246V29H976.556V11.5455H979.795L987.329 22.5227H987.482V11.5455H991.156ZM1000.05 29.2557C998.727 29.2557 997.582 28.9744 996.616 28.4119C995.656 27.8437 994.915 27.054 994.392 26.0426C993.869 25.0256 993.608 23.8466 993.608 22.5057C993.608 21.1534 993.869 19.9716 994.392 18.9602C994.915 17.9432 995.656 17.1534 996.616 16.5909C997.582 16.0227 998.727 15.7386 1000.05 15.7386C1001.38 15.7386 1002.52 16.0227 1003.48 16.5909C1004.44 17.1534 1005.19 17.9432 1005.71 18.9602C1006.23 19.9716 1006.49 21.1534 1006.49 22.5057C1006.49 23.8466 1006.23 25.0256 1005.71 26.0426C1005.19 27.054 1004.44 27.8437 1003.48 28.4119C1002.52 28.9744 1001.38 29.2557 1000.05 29.2557ZM1000.07 26.4432C1000.67 26.4432 1001.17 26.2727 1001.58 25.9318C1001.98 25.5852 1002.28 25.1136 1002.49 24.517C1002.7 23.9205 1002.8 23.2415 1002.8 22.4801C1002.8 21.7188 1002.7 21.0398 1002.49 20.4432C1002.28 19.8466 1001.98 19.375 1001.58 19.0284C1001.17 18.6818 1000.67 18.5085 1000.07 18.5085C999.46 18.5085 998.949 18.6818 998.534 19.0284C998.125 19.375 997.815 19.8466 997.605 20.4432C997.401 21.0398 997.298 21.7188 997.298 22.4801C997.298 23.2415 997.401 23.9205 997.605 24.517C997.815 25.1136 998.125 25.5852 998.534 25.9318C998.949 26.2727 999.46 26.4432 1000.07 26.4432ZM1020.64 15.9091L1016.06 29H1011.97L1007.39 15.9091H1011.23L1013.95 25.2756H1014.08L1016.79 15.9091H1020.64ZM1028.04 29.2557C1026.69 29.2557 1025.53 28.983 1024.56 28.4375C1023.6 27.8864 1022.85 27.108 1022.33 26.1023C1021.81 25.0909 1021.55 23.8949 1021.55 22.5142C1021.55 21.1676 1021.81 19.9858 1022.33 18.9688C1022.85 17.9517 1023.59 17.1591 1024.54 16.5909C1025.49 16.0227 1026.61 15.7386 1027.89 15.7386C1028.76 15.7386 1029.56 15.8778 1030.31 16.1562C1031.06 16.429 1031.71 16.8409 1032.27 17.392C1032.83 17.9432 1033.27 18.6364 1033.58 19.4716C1033.89 20.3011 1034.05 21.2727 1034.05 22.3864V23.3835H1022.99V21.1335H1030.63C1030.63 20.6108 1030.52 20.1477 1030.29 19.7443C1030.06 19.3409 1029.75 19.0256 1029.34 18.7983C1028.95 18.5653 1028.48 18.4489 1027.95 18.4489C1027.4 18.4489 1026.91 18.5767 1026.49 18.8324C1026.07 19.0824 1025.74 19.4205 1025.5 19.8466C1025.26 20.267 1025.14 20.7358 1025.13 21.2528V23.392C1025.13 24.0398 1025.25 24.5994 1025.49 25.071C1025.74 25.5426 1026.08 25.9062 1026.52 26.1619C1026.97 26.4176 1027.49 26.5455 1028.1 26.5455C1028.5 26.5455 1028.87 26.4886 1029.21 26.375C1029.54 26.2614 1029.83 26.0909 1030.07 25.8636C1030.31 25.6364 1030.49 25.358 1030.61 25.0284L1033.97 25.25C1033.8 26.0568 1033.45 26.7614 1032.92 27.3636C1032.4 27.9602 1031.72 28.4261 1030.89 28.7614C1030.07 29.0909 1029.12 29.2557 1028.04 29.2557ZM1041.24 29.2131C1040.25 29.2131 1039.35 28.9574 1038.54 28.446C1037.74 27.929 1037.1 27.1705 1036.63 26.1705C1036.16 25.1648 1035.93 23.9318 1035.93 22.4716C1035.93 20.9716 1036.17 19.7244 1036.66 18.7301C1037.14 17.7301 1037.78 16.983 1038.58 16.4886C1039.39 15.9886 1040.27 15.7386 1041.23 15.7386C1041.97 15.7386 1042.58 15.8636 1043.07 16.1136C1043.56 16.358 1043.96 16.6648 1044.26 17.0341C1044.57 17.3977 1044.8 17.7557 1044.96 18.108H1045.07V11.5455H1048.69V29H1045.11V26.9034H1044.96C1044.79 27.267 1044.55 27.6278 1044.23 27.9858C1043.93 28.3381 1043.53 28.6307 1043.03 28.8636C1042.54 29.0966 1041.95 29.2131 1041.24 29.2131ZM1042.39 26.3239C1042.98 26.3239 1043.47 26.1648 1043.88 25.8466C1044.28 25.5227 1044.6 25.071 1044.81 24.4915C1045.03 23.9119 1045.14 23.233 1045.14 22.4545C1045.14 21.6761 1045.04 21 1044.82 20.4261C1044.61 19.8523 1044.29 19.4091 1043.88 19.0966C1043.47 18.7841 1042.98 18.6278 1042.39 18.6278C1041.8 18.6278 1041.29 18.7898 1040.88 19.1136C1040.47 19.4375 1040.16 19.8864 1039.95 20.4602C1039.74 21.0341 1039.64 21.6989 1039.64 22.4545C1039.64 23.2159 1039.74 23.8892 1039.95 24.4744C1040.17 25.054 1040.48 25.5085 1040.88 25.8381C1041.29 26.1619 1041.8 26.3239 1042.39 26.3239ZM1055.41 29.2472C1054.57 29.2472 1053.83 29.1023 1053.18 28.8125C1052.52 28.517 1052 28.0824 1051.62 27.5085C1051.25 26.929 1051.06 26.2074 1051.06 25.3438C1051.06 24.6165 1051.2 24.0057 1051.46 23.5114C1051.73 23.017 1052.09 22.6193 1052.55 22.3182C1053.01 22.017 1053.54 21.7898 1054.12 21.6364C1054.71 21.483 1055.33 21.375 1055.98 21.3125C1056.74 21.233 1057.35 21.1591 1057.82 21.0909C1058.29 21.017 1058.62 20.9091 1058.83 20.767C1059.04 20.625 1059.15 20.4148 1059.15 20.1364V20.0852C1059.15 19.5455 1058.98 19.1278 1058.64 18.8324C1058.3 18.5369 1057.83 18.3892 1057.21 18.3892C1056.55 18.3892 1056.03 18.5341 1055.65 18.8239C1055.26 19.108 1055 19.4659 1054.88 19.8977L1051.52 19.625C1051.69 18.8295 1052.03 18.142 1052.53 17.5625C1053.03 16.9773 1053.67 16.5284 1054.46 16.2159C1055.26 15.8977 1056.18 15.7386 1057.22 15.7386C1057.95 15.7386 1058.65 15.8239 1059.31 15.9943C1059.98 16.1648 1060.58 16.429 1061.09 16.7869C1061.62 17.1449 1062.03 17.6051 1062.33 18.1676C1062.63 18.7244 1062.78 19.392 1062.78 20.1705V29H1059.34V27.1847H1059.24C1059.02 27.5938 1058.74 27.9545 1058.39 28.267C1058.04 28.5739 1057.62 28.8153 1057.12 28.9915C1056.63 29.1619 1056.06 29.2472 1055.41 29.2472ZM1056.45 26.7415C1056.98 26.7415 1057.45 26.6364 1057.86 26.4261C1058.27 26.2102 1058.59 25.9205 1058.83 25.5568C1059.06 25.1932 1059.18 24.7812 1059.18 24.321V22.9318C1059.06 23.0057 1058.91 23.0739 1058.71 23.1364C1058.51 23.1932 1058.29 23.2472 1058.05 23.2983C1057.81 23.3437 1057.56 23.3864 1057.32 23.4261C1057.07 23.4602 1056.85 23.4915 1056.65 23.5199C1056.23 23.5824 1055.85 23.6818 1055.54 23.8182C1055.22 23.9545 1054.97 24.1392 1054.79 24.3722C1054.62 24.5994 1054.53 24.8835 1054.53 25.2244C1054.53 25.7188 1054.71 26.0966 1055.07 26.358C1055.43 26.6136 1055.89 26.7415 1056.45 26.7415ZM1070.42 29.2131C1069.43 29.2131 1068.53 28.9574 1067.72 28.446C1066.92 27.929 1066.28 27.1705 1065.81 26.1705C1065.34 25.1648 1065.11 23.9318 1065.11 22.4716C1065.11 20.9716 1065.35 19.7244 1065.84 18.7301C1066.32 17.7301 1066.96 16.983 1067.76 16.4886C1068.57 15.9886 1069.45 15.7386 1070.41 15.7386C1071.15 15.7386 1071.76 15.8636 1072.25 16.1136C1072.74 16.358 1073.14 16.6648 1073.44 17.0341C1073.75 17.3977 1073.98 17.7557 1074.14 18.108H1074.25V11.5455H1077.87V29H1074.29V26.9034H1074.14C1073.97 27.267 1073.73 27.6278 1073.41 27.9858C1073.11 28.3381 1072.71 28.6307 1072.21 28.8636C1071.72 29.0966 1071.13 29.2131 1070.42 29.2131ZM1071.57 26.3239C1072.16 26.3239 1072.65 26.1648 1073.05 25.8466C1073.46 25.5227 1073.78 25.071 1073.99 24.4915C1074.21 23.9119 1074.32 23.233 1074.32 22.4545C1074.32 21.6761 1074.22 21 1074 20.4261C1073.78 19.8523 1073.47 19.4091 1073.06 19.0966C1072.65 18.7841 1072.16 18.6278 1071.57 18.6278C1070.98 18.6278 1070.47 18.7898 1070.06 19.1136C1069.65 19.4375 1069.34 19.8864 1069.13 20.4602C1068.92 21.0341 1068.82 21.6989 1068.82 22.4545C1068.82 23.2159 1068.92 23.8892 1069.13 24.4744C1069.35 25.054 1069.66 25.5085 1070.06 25.8381C1070.47 26.1619 1070.98 26.3239 1071.57 26.3239ZM1086.82 29.2557C1085.47 29.2557 1084.32 28.983 1083.34 28.4375C1082.38 27.8864 1081.63 27.108 1081.11 26.1023C1080.59 25.0909 1080.33 23.8949 1080.33 22.5142C1080.33 21.1676 1080.59 19.9858 1081.11 18.9688C1081.63 17.9517 1082.37 17.1591 1083.32 16.5909C1084.27 16.0227 1085.39 15.7386 1086.68 15.7386C1087.54 15.7386 1088.34 15.8778 1089.09 16.1562C1089.84 16.429 1090.49 16.8409 1091.05 17.392C1091.61 17.9432 1092.05 18.6364 1092.36 19.4716C1092.67 20.3011 1092.83 21.2727 1092.83 22.3864V23.3835H1081.78V21.1335H1089.41C1089.41 20.6108 1089.3 20.1477 1089.07 19.7443C1088.84 19.3409 1088.53 19.0256 1088.12 18.7983C1087.73 18.5653 1087.26 18.4489 1086.74 18.4489C1086.18 18.4489 1085.7 18.5767 1085.27 18.8324C1084.85 19.0824 1084.52 19.4205 1084.28 19.8466C1084.04 20.267 1083.92 20.7358 1083.91 21.2528V23.392C1083.91 24.0398 1084.03 24.5994 1084.27 25.071C1084.52 25.5426 1084.86 25.9062 1085.3 26.1619C1085.75 26.4176 1086.27 26.5455 1086.88 26.5455C1087.28 26.5455 1087.65 26.4886 1087.99 26.375C1088.32 26.2614 1088.61 26.0909 1088.85 25.8636C1089.09 25.6364 1089.27 25.358 1089.39 25.0284L1092.75 25.25C1092.58 26.0568 1092.23 26.7614 1091.7 27.3636C1091.18 27.9602 1090.51 28.4261 1089.68 28.7614C1088.85 29.0909 1087.9 29.2557 1086.82 29.2557ZM1106.09 19.642L1102.77 19.8466C1102.71 19.5625 1102.59 19.3068 1102.4 19.0795C1102.21 18.8466 1101.97 18.6619 1101.66 18.5256C1101.36 18.3835 1101 18.3125 1100.58 18.3125C1100.01 18.3125 1099.54 18.4318 1099.15 18.6705C1098.77 18.9034 1098.57 19.2159 1098.57 19.608C1098.57 19.9205 1098.7 20.1847 1098.95 20.4006C1099.2 20.6165 1099.63 20.7898 1100.24 20.9205L1102.61 21.3977C1103.88 21.6591 1104.83 22.0795 1105.45 22.6591C1106.08 23.2386 1106.39 24 1106.39 24.9432C1106.39 25.8011 1106.14 26.554 1105.63 27.2017C1105.13 27.8494 1104.44 28.3551 1103.57 28.7188C1102.7 29.0767 1101.7 29.2557 1100.56 29.2557C1098.83 29.2557 1097.45 28.8949 1096.42 28.1733C1095.39 27.446 1094.8 26.4574 1094.62 25.2074L1098.19 25.0199C1098.3 25.5483 1098.56 25.9517 1098.97 26.2301C1099.39 26.5028 1099.92 26.6392 1100.57 26.6392C1101.2 26.6392 1101.72 26.517 1102.1 26.2727C1102.49 26.0227 1102.69 25.7017 1102.7 25.3097C1102.69 24.9801 1102.55 24.7102 1102.28 24.5C1102.01 24.2841 1101.59 24.1193 1101.02 24.0057L1098.75 23.554C1097.47 23.2983 1096.52 22.8551 1095.9 22.2244C1095.28 21.5937 1094.97 20.7898 1094.97 19.8125C1094.97 18.9716 1095.2 18.2472 1095.65 17.6392C1096.11 17.0312 1096.76 16.5625 1097.59 16.233C1098.42 15.9034 1099.4 15.7386 1100.52 15.7386C1102.17 15.7386 1103.47 16.0881 1104.42 16.7869C1105.38 17.4858 1105.93 18.4375 1106.09 19.642ZM1168.58 11.5455V29H1165.39L1157.8 18.0142H1157.67V29H1153.98V11.5455H1157.22L1164.75 22.5227H1164.9V11.5455H1168.58ZM1177.52 29.2557C1176.18 29.2557 1175.02 28.983 1174.05 28.4375C1173.08 27.8864 1172.34 27.108 1171.81 26.1023C1171.29 25.0909 1171.03 23.8949 1171.03 22.5142C1171.03 21.1676 1171.29 19.9858 1171.81 18.9688C1172.34 17.9517 1173.07 17.1591 1174.02 16.5909C1174.98 16.0227 1176.1 15.7386 1177.38 15.7386C1178.24 15.7386 1179.05 15.8778 1179.79 16.1562C1180.54 16.429 1181.19 16.8409 1181.75 17.392C1182.31 17.9432 1182.75 18.6364 1183.06 19.4716C1183.38 20.3011 1183.53 21.2727 1183.53 22.3864V23.3835H1172.48V21.1335H1180.12C1180.12 20.6108 1180 20.1477 1179.77 19.7443C1179.55 19.3409 1179.23 19.0256 1178.83 18.7983C1178.43 18.5653 1177.97 18.4489 1177.44 18.4489C1176.89 18.4489 1176.4 18.5767 1175.97 18.8324C1175.55 19.0824 1175.22 19.4205 1174.98 19.8466C1174.75 20.267 1174.62 20.7358 1174.62 21.2528V23.392C1174.62 24.0398 1174.74 24.5994 1174.98 25.071C1175.22 25.5426 1175.56 25.9062 1176.01 26.1619C1176.45 26.4176 1176.98 26.5455 1177.58 26.5455C1177.99 26.5455 1178.36 26.4886 1178.69 26.375C1179.03 26.2614 1179.31 26.0909 1179.55 25.8636C1179.79 25.6364 1179.97 25.358 1180.1 25.0284L1183.46 25.25C1183.29 26.0568 1182.94 26.7614 1182.41 27.3636C1181.88 27.9602 1181.21 28.4261 1180.38 28.7614C1179.56 29.0909 1178.6 29.2557 1177.52 29.2557ZM1188.39 29L1184.83 15.9091H1188.5L1190.53 24.7045H1190.65L1192.76 15.9091H1196.37L1198.52 24.6534H1198.63L1200.62 15.9091H1204.29L1200.73 29H1196.89L1194.64 20.767H1194.48L1192.23 29H1188.39ZM1214.85 29H1210.9L1216.92 11.5455H1221.68L1227.7 29H1223.74L1219.37 15.5341H1219.23L1214.85 29ZM1214.61 22.1392H1223.95V25.0199H1214.61V22.1392ZM1229.73 29V15.9091H1233.25V18.1932H1233.39C1233.63 17.3807 1234.03 16.767 1234.59 16.3523C1235.15 15.9318 1235.8 15.7216 1236.53 15.7216C1236.71 15.7216 1236.91 15.733 1237.12 15.7557C1237.33 15.7784 1237.51 15.8097 1237.67 15.8494V19.071C1237.5 19.0199 1237.27 18.9744 1236.97 18.9347C1236.66 18.8949 1236.39 18.875 1236.14 18.875C1235.61 18.875 1235.13 18.9915 1234.71 19.2244C1234.29 19.4517 1233.96 19.7699 1233.72 20.179C1233.48 20.5881 1233.36 21.0597 1233.36 21.5938V29H1229.73ZM1239.55 29V15.9091H1243.07V18.1932H1243.21C1243.45 17.3807 1243.85 16.767 1244.41 16.3523C1244.97 15.9318 1245.62 15.7216 1246.35 15.7216C1246.53 15.7216 1246.73 15.733 1246.94 15.7557C1247.15 15.7784 1247.33 15.8097 1247.49 15.8494V19.071C1247.32 19.0199 1247.09 18.9744 1246.79 18.9347C1246.49 18.8949 1246.21 18.875 1245.96 18.875C1245.43 18.875 1244.95 18.9915 1244.53 19.2244C1244.11 19.4517 1243.78 19.7699 1243.54 20.179C1243.3 20.5881 1243.18 21.0597 1243.18 21.5938V29H1239.55ZM1249.37 29V15.9091H1253V29H1249.37ZM1251.19 14.2216C1250.65 14.2216 1250.19 14.0426 1249.81 13.6847C1249.42 13.321 1249.23 12.8864 1249.23 12.3807C1249.23 11.8807 1249.42 11.4517 1249.81 11.0938C1250.19 10.7301 1250.65 10.5483 1251.19 10.5483C1251.73 10.5483 1252.19 10.7301 1252.58 11.0938C1252.96 11.4517 1253.15 11.8807 1253.15 12.3807C1253.15 12.8864 1252.96 13.321 1252.58 13.6847C1252.19 14.0426 1251.73 14.2216 1251.19 14.2216ZM1268.11 15.9091L1263.54 29H1259.45L1254.87 15.9091H1258.71L1261.42 25.2756H1261.56L1264.27 15.9091H1268.11ZM1273.35 29.2472C1272.52 29.2472 1271.77 29.1023 1271.12 28.8125C1270.47 28.517 1269.95 28.0824 1269.57 27.5085C1269.19 26.929 1269.01 26.2074 1269.01 25.3438C1269.01 24.6165 1269.14 24.0057 1269.41 23.5114C1269.67 23.017 1270.04 22.6193 1270.5 22.3182C1270.96 22.017 1271.48 21.7898 1272.07 21.6364C1272.66 21.483 1273.28 21.375 1273.92 21.3125C1274.69 21.233 1275.3 21.1591 1275.77 21.0909C1276.23 21.017 1276.57 20.9091 1276.78 20.767C1276.99 20.625 1277.1 20.4148 1277.1 20.1364V20.0852C1277.1 19.5455 1276.92 19.1278 1276.58 18.8324C1276.25 18.5369 1275.77 18.3892 1275.15 18.3892C1274.5 18.3892 1273.98 18.5341 1273.59 18.8239C1273.21 19.108 1272.95 19.4659 1272.83 19.8977L1269.47 19.625C1269.64 18.8295 1269.97 18.142 1270.47 17.5625C1270.97 16.9773 1271.62 16.5284 1272.41 16.2159C1273.2 15.8977 1274.12 15.7386 1275.17 15.7386C1275.9 15.7386 1276.59 15.8239 1277.26 15.9943C1277.93 16.1648 1278.52 16.429 1279.04 16.7869C1279.56 17.1449 1279.97 17.6051 1280.27 18.1676C1280.58 18.7244 1280.73 19.392 1280.73 20.1705V29H1277.28V27.1847H1277.18C1276.97 27.5938 1276.69 27.9545 1276.34 28.267C1275.98 28.5739 1275.56 28.8153 1275.07 28.9915C1274.57 29.1619 1274 29.2472 1273.35 29.2472ZM1274.39 26.7415C1274.93 26.7415 1275.4 26.6364 1275.81 26.4261C1276.22 26.2102 1276.54 25.9205 1276.77 25.5568C1277 25.1932 1277.12 24.7812 1277.12 24.321V22.9318C1277.01 23.0057 1276.85 23.0739 1276.65 23.1364C1276.46 23.1932 1276.24 23.2472 1276 23.2983C1275.75 23.3437 1275.51 23.3864 1275.26 23.4261C1275.02 23.4602 1274.8 23.4915 1274.6 23.5199C1274.17 23.5824 1273.8 23.6818 1273.48 23.8182C1273.16 23.9545 1272.92 24.1392 1272.74 24.3722C1272.56 24.5994 1272.48 24.8835 1272.48 25.2244C1272.48 25.7188 1272.65 26.0966 1273.01 26.358C1273.38 26.6136 1273.84 26.7415 1274.39 26.7415ZM1287.17 11.5455V29H1283.54V11.5455H1287.17ZM1300.97 19.642L1297.65 19.8466C1297.59 19.5625 1297.47 19.3068 1297.28 19.0795C1297.1 18.8466 1296.85 18.6619 1296.54 18.5256C1296.24 18.3835 1295.88 18.3125 1295.46 18.3125C1294.9 18.3125 1294.42 18.4318 1294.04 18.6705C1293.65 18.9034 1293.46 19.2159 1293.46 19.608C1293.46 19.9205 1293.58 20.1847 1293.83 20.4006C1294.08 20.6165 1294.51 20.7898 1295.12 20.9205L1297.49 21.3977C1298.76 21.6591 1299.71 22.0795 1300.33 22.6591C1300.96 23.2386 1301.27 24 1301.27 24.9432C1301.27 25.8011 1301.02 26.554 1300.51 27.2017C1300.01 27.8494 1299.33 28.3551 1298.45 28.7188C1297.58 29.0767 1296.58 29.2557 1295.44 29.2557C1293.71 29.2557 1292.33 28.8949 1291.3 28.1733C1290.28 27.446 1289.68 26.4574 1289.5 25.2074L1293.07 25.0199C1293.18 25.5483 1293.44 25.9517 1293.86 26.2301C1294.27 26.5028 1294.8 26.6392 1295.45 26.6392C1296.09 26.6392 1296.6 26.517 1296.99 26.2727C1297.38 26.0227 1297.58 25.7017 1297.58 25.3097C1297.58 24.9801 1297.44 24.7102 1297.16 24.5C1296.89 24.2841 1296.47 24.1193 1295.9 24.0057L1293.64 23.554C1292.36 23.2983 1291.41 22.8551 1290.78 22.2244C1290.16 21.5937 1289.85 20.7898 1289.85 19.8125C1289.85 18.9716 1290.08 18.2472 1290.53 17.6392C1290.99 17.0312 1291.64 16.5625 1292.47 16.233C1293.3 15.9034 1294.28 15.7386 1295.4 15.7386C1297.05 15.7386 1298.35 16.0881 1299.3 16.7869C1300.26 17.4858 1300.81 18.4375 1300.97 19.642ZM1363.46 11.5455V29H1360.27L1352.68 18.0142H1352.55V29H1348.86V11.5455H1352.1L1359.63 22.5227H1359.79V11.5455H1363.46ZM1372.36 29.2557C1371.03 29.2557 1369.89 28.9744 1368.92 28.4119C1367.96 27.8437 1367.22 27.054 1366.7 26.0426C1366.17 25.0256 1365.91 23.8466 1365.91 22.5057C1365.91 21.1534 1366.17 19.9716 1366.7 18.9602C1367.22 17.9432 1367.96 17.1534 1368.92 16.5909C1369.89 16.0227 1371.03 15.7386 1372.36 15.7386C1373.68 15.7386 1374.82 16.0227 1375.78 16.5909C1376.75 17.1534 1377.49 17.9432 1378.01 18.9602C1378.54 19.9716 1378.8 21.1534 1378.8 22.5057C1378.8 23.8466 1378.54 25.0256 1378.01 26.0426C1377.49 27.054 1376.75 27.8437 1375.78 28.4119C1374.82 28.9744 1373.68 29.2557 1372.36 29.2557ZM1372.37 26.4432C1372.98 26.4432 1373.48 26.2727 1373.88 25.9318C1374.28 25.5852 1374.59 25.1136 1374.79 24.517C1375 23.9205 1375.11 23.2415 1375.11 22.4801C1375.11 21.7188 1375 21.0398 1374.79 20.4432C1374.59 19.8466 1374.28 19.375 1373.88 19.0284C1373.48 18.6818 1372.98 18.5085 1372.37 18.5085C1371.76 18.5085 1371.25 18.6818 1370.84 19.0284C1370.43 19.375 1370.12 19.8466 1369.91 20.4432C1369.71 21.0398 1369.6 21.7188 1369.6 22.4801C1369.6 23.2415 1369.71 23.9205 1369.91 24.517C1370.12 25.1136 1370.43 25.5852 1370.84 25.9318C1371.25 26.2727 1371.76 26.4432 1372.37 26.4432ZM1392.94 15.9091L1388.37 29H1384.27L1379.7 15.9091H1383.53L1386.25 25.2756H1386.39L1389.1 15.9091H1392.94ZM1400.34 29.2557C1399 29.2557 1397.84 28.983 1396.87 28.4375C1395.9 27.8864 1395.16 27.108 1394.63 26.1023C1394.11 25.0909 1393.85 23.8949 1393.85 22.5142C1393.85 21.1676 1394.11 19.9858 1394.63 18.9688C1395.16 17.9517 1395.89 17.1591 1396.84 16.5909C1397.8 16.0227 1398.92 15.7386 1400.2 15.7386C1401.06 15.7386 1401.87 15.8778 1402.61 16.1562C1403.36 16.429 1404.01 16.8409 1404.57 17.392C1405.13 17.9432 1405.57 18.6364 1405.88 19.4716C1406.2 20.3011 1406.35 21.2727 1406.35 22.3864V23.3835H1395.3V21.1335H1402.94C1402.94 20.6108 1402.82 20.1477 1402.59 19.7443C1402.37 19.3409 1402.05 19.0256 1401.65 18.7983C1401.25 18.5653 1400.79 18.4489 1400.26 18.4489C1399.71 18.4489 1399.22 18.5767 1398.79 18.8324C1398.37 19.0824 1398.04 19.4205 1397.8 19.8466C1397.57 20.267 1397.44 20.7358 1397.44 21.2528V23.392C1397.44 24.0398 1397.56 24.5994 1397.8 25.071C1398.04 25.5426 1398.38 25.9062 1398.83 26.1619C1399.27 26.4176 1399.8 26.5455 1400.4 26.5455C1400.81 26.5455 1401.18 26.4886 1401.51 26.375C1401.85 26.2614 1402.13 26.0909 1402.37 25.8636C1402.61 25.6364 1402.79 25.358 1402.92 25.0284L1406.28 25.25C1406.11 26.0568 1405.76 26.7614 1405.23 27.3636C1404.71 27.9602 1404.03 28.4261 1403.2 28.7614C1402.38 29.0909 1401.42 29.2557 1400.34 29.2557ZM1413.55 29.2131C1412.55 29.2131 1411.65 28.9574 1410.84 28.446C1410.04 27.929 1409.41 27.1705 1408.94 26.1705C1408.47 25.1648 1408.24 23.9318 1408.24 22.4716C1408.24 20.9716 1408.48 19.7244 1408.96 18.7301C1409.44 17.7301 1410.09 16.983 1410.89 16.4886C1411.69 15.9886 1412.58 15.7386 1413.54 15.7386C1414.27 15.7386 1414.88 15.8636 1415.37 16.1136C1415.86 16.358 1416.26 16.6648 1416.56 17.0341C1416.87 17.3977 1417.1 17.7557 1417.26 18.108H1417.37V11.5455H1421V29H1417.42V26.9034H1417.26C1417.09 27.267 1416.85 27.6278 1416.54 27.9858C1416.23 28.3381 1415.83 28.6307 1415.34 28.8636C1414.85 29.0966 1414.25 29.2131 1413.55 29.2131ZM1414.7 26.3239C1415.28 26.3239 1415.78 26.1648 1416.18 25.8466C1416.59 25.5227 1416.9 25.071 1417.12 24.4915C1417.34 23.9119 1417.45 23.233 1417.45 22.4545C1417.45 21.6761 1417.34 21 1417.13 20.4261C1416.91 19.8523 1416.6 19.4091 1416.19 19.0966C1415.78 18.7841 1415.28 18.6278 1414.7 18.6278C1414.1 18.6278 1413.6 18.7898 1413.19 19.1136C1412.78 19.4375 1412.47 19.8864 1412.26 20.4602C1412.05 21.0341 1411.94 21.6989 1411.94 22.4545C1411.94 23.2159 1412.05 23.8892 1412.26 24.4744C1412.48 25.054 1412.78 25.5085 1413.19 25.8381C1413.6 26.1619 1414.1 26.3239 1414.7 26.3239ZM1427.71 29.2472C1426.88 29.2472 1426.13 29.1023 1425.48 28.8125C1424.83 28.517 1424.31 28.0824 1423.93 27.5085C1423.55 26.929 1423.37 26.2074 1423.37 25.3438C1423.37 24.6165 1423.5 24.0057 1423.77 23.5114C1424.03 23.017 1424.4 22.6193 1424.86 22.3182C1425.32 22.017 1425.84 21.7898 1426.43 21.6364C1427.02 21.483 1427.64 21.375 1428.28 21.3125C1429.05 21.233 1429.66 21.1591 1430.12 21.0909C1430.59 21.017 1430.93 20.9091 1431.14 20.767C1431.35 20.625 1431.45 20.4148 1431.45 20.1364V20.0852C1431.45 19.5455 1431.28 19.1278 1430.94 18.8324C1430.61 18.5369 1430.13 18.3892 1429.51 18.3892C1428.86 18.3892 1428.34 18.5341 1427.95 18.8239C1427.57 19.108 1427.31 19.4659 1427.18 19.8977L1423.83 19.625C1424 18.8295 1424.33 18.142 1424.83 17.5625C1425.33 16.9773 1425.98 16.5284 1426.77 16.2159C1427.56 15.8977 1428.48 15.7386 1429.53 15.7386C1430.26 15.7386 1430.95 15.8239 1431.62 15.9943C1432.29 16.1648 1432.88 16.429 1433.4 16.7869C1433.92 17.1449 1434.33 17.6051 1434.63 18.1676C1434.93 18.7244 1435.09 19.392 1435.09 20.1705V29H1431.64V27.1847H1431.54C1431.33 27.5938 1431.05 27.9545 1430.7 28.267C1430.34 28.5739 1429.92 28.8153 1429.43 28.9915C1428.93 29.1619 1428.36 29.2472 1427.71 29.2472ZM1428.75 26.7415C1429.29 26.7415 1429.76 26.6364 1430.17 26.4261C1430.58 26.2102 1430.9 25.9205 1431.13 25.5568C1431.36 25.1932 1431.48 24.7812 1431.48 24.321V22.9318C1431.37 23.0057 1431.21 23.0739 1431.01 23.1364C1430.82 23.1932 1430.6 23.2472 1430.36 23.2983C1430.11 23.3437 1429.87 23.3864 1429.62 23.4261C1429.38 23.4602 1429.16 23.4915 1428.96 23.5199C1428.53 23.5824 1428.16 23.6818 1427.84 23.8182C1427.52 23.9545 1427.28 24.1392 1427.1 24.3722C1426.92 24.5994 1426.84 24.8835 1426.84 25.2244C1426.84 25.7188 1427.01 26.0966 1427.37 26.358C1427.74 26.6136 1428.2 26.7415 1428.75 26.7415ZM1442.73 29.2131C1441.73 29.2131 1440.83 28.9574 1440.02 28.446C1439.22 27.929 1438.59 27.1705 1438.12 26.1705C1437.65 25.1648 1437.42 23.9318 1437.42 22.4716C1437.42 20.9716 1437.66 19.7244 1438.14 18.7301C1438.62 17.7301 1439.27 16.983 1440.07 16.4886C1440.87 15.9886 1441.76 15.7386 1442.72 15.7386C1443.45 15.7386 1444.06 15.8636 1444.55 16.1136C1445.04 16.358 1445.44 16.6648 1445.74 17.0341C1446.05 17.3977 1446.28 17.7557 1446.44 18.108H1446.55V11.5455H1450.17V29H1446.6V26.9034H1446.44C1446.27 27.267 1446.03 27.6278 1445.72 27.9858C1445.41 28.3381 1445.01 28.6307 1444.52 28.8636C1444.03 29.0966 1443.43 29.2131 1442.73 29.2131ZM1443.88 26.3239C1444.46 26.3239 1444.96 26.1648 1445.36 25.8466C1445.77 25.5227 1446.08 25.071 1446.3 24.4915C1446.52 23.9119 1446.63 23.233 1446.63 22.4545C1446.63 21.6761 1446.52 21 1446.31 20.4261C1446.09 19.8523 1445.78 19.4091 1445.37 19.0966C1444.96 18.7841 1444.46 18.6278 1443.88 18.6278C1443.28 18.6278 1442.78 18.7898 1442.37 19.1136C1441.96 19.4375 1441.65 19.8864 1441.44 20.4602C1441.23 21.0341 1441.12 21.6989 1441.12 22.4545C1441.12 23.2159 1441.23 23.8892 1441.44 24.4744C1441.65 25.054 1441.96 25.5085 1442.37 25.8381C1442.78 26.1619 1443.28 26.3239 1443.88 26.3239ZM1459.13 29.2557C1457.78 29.2557 1456.62 28.983 1455.65 28.4375C1454.68 27.8864 1453.94 27.108 1453.42 26.1023C1452.89 25.0909 1452.63 23.8949 1452.63 22.5142C1452.63 21.1676 1452.89 19.9858 1453.42 18.9688C1453.94 17.9517 1454.67 17.1591 1455.62 16.5909C1456.58 16.0227 1457.7 15.7386 1458.98 15.7386C1459.84 15.7386 1460.65 15.8778 1461.39 16.1562C1462.14 16.429 1462.8 16.8409 1463.35 17.392C1463.92 17.9432 1464.35 18.6364 1464.67 19.4716C1464.98 20.3011 1465.13 21.2727 1465.13 22.3864V23.3835H1454.08V21.1335H1461.72C1461.72 20.6108 1461.6 20.1477 1461.38 19.7443C1461.15 19.3409 1460.83 19.0256 1460.43 18.7983C1460.03 18.5653 1459.57 18.4489 1459.04 18.4489C1458.49 18.4489 1458 18.5767 1457.57 18.8324C1457.15 19.0824 1456.82 19.4205 1456.59 19.8466C1456.35 20.267 1456.23 20.7358 1456.22 21.2528V23.392C1456.22 24.0398 1456.34 24.5994 1456.58 25.071C1456.82 25.5426 1457.17 25.9062 1457.61 26.1619C1458.05 26.4176 1458.58 26.5455 1459.19 26.5455C1459.59 26.5455 1459.96 26.4886 1460.29 26.375C1460.63 26.2614 1460.92 26.0909 1461.15 25.8636C1461.39 25.6364 1461.57 25.358 1461.7 25.0284L1465.06 25.25C1464.89 26.0568 1464.54 26.7614 1464.01 27.3636C1463.49 27.9602 1462.81 28.4261 1461.98 28.7614C1461.16 29.0909 1460.21 29.2557 1459.13 29.2557ZM1478.4 19.642L1475.07 19.8466C1475.01 19.5625 1474.89 19.3068 1474.71 19.0795C1474.52 18.8466 1474.27 18.6619 1473.96 18.5256C1473.66 18.3835 1473.3 18.3125 1472.88 18.3125C1472.32 18.3125 1471.84 18.4318 1471.46 18.6705C1471.07 18.9034 1470.88 19.2159 1470.88 19.608C1470.88 19.9205 1471 20.1847 1471.25 20.4006C1471.5 20.6165 1471.93 20.7898 1472.54 20.9205L1474.91 21.3977C1476.18 21.6591 1477.13 22.0795 1477.76 22.6591C1478.38 23.2386 1478.69 24 1478.69 24.9432C1478.69 25.8011 1478.44 26.554 1477.94 27.2017C1477.44 27.8494 1476.75 28.3551 1475.87 28.7188C1475 29.0767 1474 29.2557 1472.86 29.2557C1471.13 29.2557 1469.75 28.8949 1468.72 28.1733C1467.7 27.446 1467.1 26.4574 1466.92 25.2074L1470.5 25.0199C1470.6 25.5483 1470.86 25.9517 1471.28 26.2301C1471.69 26.5028 1472.23 26.6392 1472.87 26.6392C1473.51 26.6392 1474.02 26.517 1474.41 26.2727C1474.8 26.0227 1475 25.7017 1475 25.3097C1475 24.9801 1474.86 24.7102 1474.59 24.5C1474.31 24.2841 1473.89 24.1193 1473.32 24.0057L1471.06 23.554C1469.78 23.2983 1468.83 22.8551 1468.2 22.2244C1467.58 21.5937 1467.27 20.7898 1467.27 19.8125C1467.27 18.9716 1467.5 18.2472 1467.96 17.6392C1468.42 17.0312 1469.06 16.5625 1469.89 16.233C1470.73 15.9034 1471.7 15.7386 1472.82 15.7386C1474.48 15.7386 1475.78 16.0881 1476.73 16.7869C1477.68 17.4858 1478.24 18.4375 1478.4 19.642ZM1540.88 11.5455V29H1537.69L1530.1 18.0142H1529.97V29H1526.28V11.5455H1529.52L1537.06 22.5227H1537.21V11.5455H1540.88ZM1549.83 29.2557C1548.48 29.2557 1547.32 28.983 1546.35 28.4375C1545.39 27.8864 1544.64 27.108 1544.12 26.1023C1543.6 25.0909 1543.33 23.8949 1543.33 22.5142C1543.33 21.1676 1543.6 19.9858 1544.12 18.9688C1544.64 17.9517 1545.38 17.1591 1546.33 16.5909C1547.28 16.0227 1548.4 15.7386 1549.68 15.7386C1550.55 15.7386 1551.35 15.8778 1552.1 16.1562C1552.85 16.429 1553.5 16.8409 1554.06 17.392C1554.62 17.9432 1555.06 18.6364 1555.37 19.4716C1555.68 20.3011 1555.84 21.2727 1555.84 22.3864V23.3835H1544.78V21.1335H1552.42C1552.42 20.6108 1552.31 20.1477 1552.08 19.7443C1551.85 19.3409 1551.54 19.0256 1551.13 18.7983C1550.74 18.5653 1550.27 18.4489 1549.74 18.4489C1549.19 18.4489 1548.7 18.5767 1548.28 18.8324C1547.86 19.0824 1547.53 19.4205 1547.29 19.8466C1547.05 20.267 1546.93 20.7358 1546.92 21.2528V23.392C1546.92 24.0398 1547.04 24.5994 1547.28 25.071C1547.52 25.5426 1547.87 25.9062 1548.31 26.1619C1548.75 26.4176 1549.28 26.5455 1549.89 26.5455C1550.29 26.5455 1550.66 26.4886 1551 26.375C1551.33 26.2614 1551.62 26.0909 1551.86 25.8636C1552.1 25.6364 1552.28 25.358 1552.4 25.0284L1555.76 25.25C1555.59 26.0568 1555.24 26.7614 1554.71 27.3636C1554.19 27.9602 1553.51 28.4261 1552.68 28.7614C1551.86 29.0909 1550.91 29.2557 1549.83 29.2557ZM1560.7 29L1557.13 15.9091H1560.81L1562.83 24.7045H1562.95L1565.07 15.9091H1568.67L1570.82 24.6534H1570.93L1572.93 15.9091H1576.59L1573.04 29H1569.19L1566.94 20.767H1566.78L1564.53 29H1560.7ZM1587.16 29H1583.2L1589.23 11.5455H1593.99L1600 29H1596.05L1591.68 15.5341H1591.54L1587.16 29ZM1586.91 22.1392H1596.25V25.0199H1586.91V22.1392ZM1602.03 29V15.9091H1605.55V18.1932H1605.69C1605.93 17.3807 1606.33 16.767 1606.89 16.3523C1607.46 15.9318 1608.1 15.7216 1608.84 15.7216C1609.02 15.7216 1609.21 15.733 1609.42 15.7557C1609.63 15.7784 1609.82 15.8097 1609.98 15.8494V19.071C1609.81 19.0199 1609.57 18.9744 1609.27 18.9347C1608.97 18.8949 1608.69 18.875 1608.44 18.875C1607.91 18.875 1607.43 18.9915 1607.01 19.2244C1606.6 19.4517 1606.27 19.7699 1606.02 20.179C1605.78 20.5881 1605.67 21.0597 1605.67 21.5938V29H1602.03ZM1611.86 29V15.9091H1615.38V18.1932H1615.51C1615.75 17.3807 1616.15 16.767 1616.71 16.3523C1617.28 15.9318 1617.92 15.7216 1618.66 15.7216C1618.84 15.7216 1619.03 15.733 1619.24 15.7557C1619.45 15.7784 1619.64 15.8097 1619.8 15.8494V19.071C1619.63 19.0199 1619.39 18.9744 1619.09 18.9347C1618.79 18.8949 1618.51 18.875 1618.26 18.875C1617.73 18.875 1617.25 18.9915 1616.83 19.2244C1616.42 19.4517 1616.09 19.7699 1615.84 20.179C1615.61 20.5881 1615.49 21.0597 1615.49 21.5938V29H1611.86ZM1621.68 29V15.9091H1625.31V29H1621.68ZM1623.5 14.2216C1622.96 14.2216 1622.5 14.0426 1622.11 13.6847C1621.73 13.321 1621.54 12.8864 1621.54 12.3807C1621.54 11.8807 1621.73 11.4517 1622.11 11.0938C1622.5 10.7301 1622.96 10.5483 1623.5 10.5483C1624.04 10.5483 1624.5 10.7301 1624.88 11.0938C1625.27 11.4517 1625.46 11.8807 1625.46 12.3807C1625.46 12.8864 1625.27 13.321 1624.88 13.6847C1624.5 14.0426 1624.04 14.2216 1623.5 14.2216ZM1640.42 15.9091L1635.84 29H1631.75L1627.17 15.9091H1631.01L1633.73 25.2756H1633.87L1636.58 15.9091H1640.42ZM1645.66 29.2472C1644.82 29.2472 1644.08 29.1023 1643.43 28.8125C1642.77 28.517 1642.25 28.0824 1641.87 27.5085C1641.5 26.929 1641.31 26.2074 1641.31 25.3438C1641.31 24.6165 1641.45 24.0057 1641.71 23.5114C1641.98 23.017 1642.34 22.6193 1642.8 22.3182C1643.26 22.017 1643.79 21.7898 1644.37 21.6364C1644.96 21.483 1645.58 21.375 1646.23 21.3125C1646.99 21.233 1647.6 21.1591 1648.07 21.0909C1648.54 21.017 1648.87 20.9091 1649.08 20.767C1649.29 20.625 1649.4 20.4148 1649.4 20.1364V20.0852C1649.4 19.5455 1649.23 19.1278 1648.89 18.8324C1648.55 18.5369 1648.08 18.3892 1647.46 18.3892C1646.8 18.3892 1646.28 18.5341 1645.9 18.8239C1645.51 19.108 1645.25 19.4659 1645.13 19.8977L1641.77 19.625C1641.94 18.8295 1642.28 18.142 1642.78 17.5625C1643.28 16.9773 1643.92 16.5284 1644.71 16.2159C1645.51 15.8977 1646.43 15.7386 1647.47 15.7386C1648.2 15.7386 1648.9 15.8239 1649.56 15.9943C1650.23 16.1648 1650.83 16.429 1651.34 16.7869C1651.87 17.1449 1652.28 17.6051 1652.58 18.1676C1652.88 18.7244 1653.03 19.392 1653.03 20.1705V29H1649.59V27.1847H1649.49C1649.27 27.5938 1648.99 27.9545 1648.64 28.267C1648.29 28.5739 1647.87 28.8153 1647.37 28.9915C1646.88 29.1619 1646.31 29.2472 1645.66 29.2472ZM1646.7 26.7415C1647.23 26.7415 1647.7 26.6364 1648.11 26.4261C1648.52 26.2102 1648.84 25.9205 1649.08 25.5568C1649.31 25.1932 1649.43 24.7812 1649.43 24.321V22.9318C1649.31 23.0057 1649.16 23.0739 1648.96 23.1364C1648.76 23.1932 1648.54 23.2472 1648.3 23.2983C1648.06 23.3437 1647.81 23.3864 1647.57 23.4261C1647.32 23.4602 1647.1 23.4915 1646.9 23.5199C1646.48 23.5824 1646.1 23.6818 1645.79 23.8182C1645.47 23.9545 1645.22 24.1392 1645.04 24.3722C1644.87 24.5994 1644.78 24.8835 1644.78 25.2244C1644.78 25.7188 1644.96 26.0966 1645.32 26.358C1645.68 26.6136 1646.14 26.7415 1646.7 26.7415ZM1659.48 11.5455V29H1655.85V11.5455H1659.48ZM1673.28 19.642L1669.95 19.8466C1669.9 19.5625 1669.78 19.3068 1669.59 19.0795C1669.4 18.8466 1669.15 18.6619 1668.85 18.5256C1668.55 18.3835 1668.18 18.3125 1667.76 18.3125C1667.2 18.3125 1666.73 18.4318 1666.34 18.6705C1665.95 18.9034 1665.76 19.2159 1665.76 19.608C1665.76 19.9205 1665.89 20.1847 1666.14 20.4006C1666.39 20.6165 1666.82 20.7898 1667.42 20.9205L1669.79 21.3977C1671.07 21.6591 1672.01 22.0795 1672.64 22.6591C1673.26 23.2386 1673.58 24 1673.58 24.9432C1673.58 25.8011 1673.32 26.554 1672.82 27.2017C1672.32 27.8494 1671.63 28.3551 1670.76 28.7188C1669.89 29.0767 1668.88 29.2557 1667.75 29.2557C1666.01 29.2557 1664.63 28.8949 1663.61 28.1733C1662.58 27.446 1661.98 26.4574 1661.81 25.2074L1665.38 25.0199C1665.49 25.5483 1665.75 25.9517 1666.16 26.2301C1666.58 26.5028 1667.11 26.6392 1667.76 26.6392C1668.39 26.6392 1668.9 26.517 1669.29 26.2727C1669.68 26.0227 1669.88 25.7017 1669.89 25.3097C1669.88 24.9801 1669.74 24.7102 1669.47 24.5C1669.2 24.2841 1668.78 24.1193 1668.21 24.0057L1665.94 23.554C1664.66 23.2983 1663.71 22.8551 1663.09 22.2244C1662.47 21.5937 1662.16 20.7898 1662.16 19.8125C1662.16 18.9716 1662.38 18.2472 1662.84 17.6392C1663.3 17.0312 1663.94 16.5625 1664.77 16.233C1665.61 15.9034 1666.59 15.7386 1667.7 15.7386C1669.36 15.7386 1670.66 16.0881 1671.61 16.7869C1672.56 17.4858 1673.12 18.4375 1673.28 19.642ZM1734.99 11.5455V29H1731.8L1724.21 18.0142H1724.08V29H1720.39V11.5455H1723.63L1731.16 22.5227H1731.32V11.5455H1734.99ZM1743.89 29.2557C1742.56 29.2557 1741.42 28.9744 1740.45 28.4119C1739.49 27.8437 1738.75 27.054 1738.23 26.0426C1737.71 25.0256 1737.44 23.8466 1737.44 22.5057C1737.44 21.1534 1737.71 19.9716 1738.23 18.9602C1738.75 17.9432 1739.49 17.1534 1740.45 16.5909C1741.42 16.0227 1742.56 15.7386 1743.89 15.7386C1745.21 15.7386 1746.35 16.0227 1747.31 16.5909C1748.28 17.1534 1749.02 17.9432 1749.55 18.9602C1750.07 19.9716 1750.33 21.1534 1750.33 22.5057C1750.33 23.8466 1750.07 25.0256 1749.55 26.0426C1749.02 27.054 1748.28 27.8437 1747.31 28.4119C1746.35 28.9744 1745.21 29.2557 1743.89 29.2557ZM1743.9 26.4432C1744.51 26.4432 1745.01 26.2727 1745.41 25.9318C1745.82 25.5852 1746.12 25.1136 1746.32 24.517C1746.53 23.9205 1746.64 23.2415 1746.64 22.4801C1746.64 21.7188 1746.53 21.0398 1746.32 20.4432C1746.12 19.8466 1745.82 19.375 1745.41 19.0284C1745.01 18.6818 1744.51 18.5085 1743.9 18.5085C1743.3 18.5085 1742.78 18.6818 1742.37 19.0284C1741.96 19.375 1741.65 19.8466 1741.44 20.4432C1741.24 21.0398 1741.13 21.7188 1741.13 22.4801C1741.13 23.2415 1741.24 23.9205 1741.44 24.517C1741.65 25.1136 1741.96 25.5852 1742.37 25.9318C1742.78 26.2727 1743.3 26.4432 1743.9 26.4432ZM1764.47 15.9091L1759.9 29H1755.81L1751.23 15.9091H1755.06L1757.78 25.2756H1757.92L1760.63 15.9091H1764.47ZM1771.88 29.2557C1770.53 29.2557 1769.37 28.983 1768.4 28.4375C1767.43 27.8864 1766.69 27.108 1766.17 26.1023C1765.64 25.0909 1765.38 23.8949 1765.38 22.5142C1765.38 21.1676 1765.64 19.9858 1766.17 18.9688C1766.69 17.9517 1767.42 17.1591 1768.37 16.5909C1769.33 16.0227 1770.45 15.7386 1771.73 15.7386C1772.59 15.7386 1773.4 15.8778 1774.14 16.1562C1774.89 16.429 1775.55 16.8409 1776.1 17.392C1776.67 17.9432 1777.1 18.6364 1777.42 19.4716C1777.73 20.3011 1777.88 21.2727 1777.88 22.3864V23.3835H1766.83V21.1335H1774.47C1774.47 20.6108 1774.35 20.1477 1774.13 19.7443C1773.9 19.3409 1773.58 19.0256 1773.18 18.7983C1772.78 18.5653 1772.32 18.4489 1771.79 18.4489C1771.24 18.4489 1770.75 18.5767 1770.32 18.8324C1769.9 19.0824 1769.57 19.4205 1769.34 19.8466C1769.1 20.267 1768.98 20.7358 1768.97 21.2528V23.392C1768.97 24.0398 1769.09 24.5994 1769.33 25.071C1769.57 25.5426 1769.92 25.9062 1770.36 26.1619C1770.8 26.4176 1771.33 26.5455 1771.94 26.5455C1772.34 26.5455 1772.71 26.4886 1773.04 26.375C1773.38 26.2614 1773.67 26.0909 1773.9 25.8636C1774.14 25.6364 1774.32 25.358 1774.45 25.0284L1777.81 25.25C1777.64 26.0568 1777.29 26.7614 1776.76 27.3636C1776.24 27.9602 1775.56 28.4261 1774.73 28.7614C1773.91 29.0909 1772.96 29.2557 1771.88 29.2557ZM1785.08 29.2131C1784.08 29.2131 1783.18 28.9574 1782.38 28.446C1781.57 27.929 1780.94 27.1705 1780.47 26.1705C1780 25.1648 1779.77 23.9318 1779.77 22.4716C1779.77 20.9716 1780.01 19.7244 1780.49 18.7301C1780.98 17.7301 1781.62 16.983 1782.42 16.4886C1783.23 15.9886 1784.11 15.7386 1785.07 15.7386C1785.8 15.7386 1786.41 15.8636 1786.9 16.1136C1787.4 16.358 1787.79 16.6648 1788.09 17.0341C1788.4 17.3977 1788.63 17.7557 1788.79 18.108H1788.9V11.5455H1792.53V29H1788.95V26.9034H1788.79C1788.62 27.267 1788.38 27.6278 1788.07 27.9858C1787.76 28.3381 1787.36 28.6307 1786.87 28.8636C1786.38 29.0966 1785.78 29.2131 1785.08 29.2131ZM1786.23 26.3239C1786.81 26.3239 1787.31 26.1648 1787.71 25.8466C1788.12 25.5227 1788.43 25.071 1788.65 24.4915C1788.87 23.9119 1788.98 23.233 1788.98 22.4545C1788.98 21.6761 1788.87 21 1788.66 20.4261C1788.44 19.8523 1788.13 19.4091 1787.72 19.0966C1787.31 18.7841 1786.81 18.6278 1786.23 18.6278C1785.63 18.6278 1785.13 18.7898 1784.72 19.1136C1784.31 19.4375 1784 19.8864 1783.79 20.4602C1783.58 21.0341 1783.48 21.6989 1783.48 22.4545C1783.48 23.2159 1783.58 23.8892 1783.79 24.4744C1784.01 25.054 1784.32 25.5085 1784.72 25.8381C1785.13 26.1619 1785.63 26.3239 1786.23 26.3239ZM1799.24 29.2472C1798.41 29.2472 1797.66 29.1023 1797.01 28.8125C1796.36 28.517 1795.84 28.0824 1795.46 27.5085C1795.09 26.929 1794.9 26.2074 1794.9 25.3438C1794.9 24.6165 1795.03 24.0057 1795.3 23.5114C1795.57 23.017 1795.93 22.6193 1796.39 22.3182C1796.85 22.017 1797.37 21.7898 1797.96 21.6364C1798.55 21.483 1799.17 21.375 1799.82 21.3125C1800.58 21.233 1801.19 21.1591 1801.66 21.0909C1802.12 21.017 1802.46 20.9091 1802.67 20.767C1802.88 20.625 1802.99 20.4148 1802.99 20.1364V20.0852C1802.99 19.5455 1802.82 19.1278 1802.47 18.8324C1802.14 18.5369 1801.66 18.3892 1801.04 18.3892C1800.39 18.3892 1799.87 18.5341 1799.48 18.8239C1799.1 19.108 1798.84 19.4659 1798.72 19.8977L1795.36 19.625C1795.53 18.8295 1795.86 18.142 1796.36 17.5625C1796.86 16.9773 1797.51 16.5284 1798.3 16.2159C1799.09 15.8977 1800.01 15.7386 1801.06 15.7386C1801.79 15.7386 1802.48 15.8239 1803.15 15.9943C1803.82 16.1648 1804.41 16.429 1804.93 16.7869C1805.45 17.1449 1805.86 17.6051 1806.16 18.1676C1806.47 18.7244 1806.62 19.392 1806.62 20.1705V29H1803.17V27.1847H1803.07C1802.86 27.5938 1802.58 27.9545 1802.23 28.267C1801.88 28.5739 1801.45 28.8153 1800.96 28.9915C1800.46 29.1619 1799.89 29.2472 1799.24 29.2472ZM1800.28 26.7415C1800.82 26.7415 1801.29 26.6364 1801.7 26.4261C1802.11 26.2102 1802.43 25.9205 1802.66 25.5568C1802.89 25.1932 1803.01 24.7812 1803.01 24.321V22.9318C1802.9 23.0057 1802.74 23.0739 1802.54 23.1364C1802.35 23.1932 1802.13 23.2472 1801.89 23.2983C1801.64 23.3437 1801.4 23.3864 1801.15 23.4261C1800.91 23.4602 1800.69 23.4915 1800.49 23.5199C1800.06 23.5824 1799.69 23.6818 1799.37 23.8182C1799.05 23.9545 1798.81 24.1392 1798.63 24.3722C1798.45 24.5994 1798.37 24.8835 1798.37 25.2244C1798.37 25.7188 1798.55 26.0966 1798.9 26.358C1799.27 26.6136 1799.73 26.7415 1800.28 26.7415ZM1814.26 29.2131C1813.26 29.2131 1812.36 28.9574 1811.56 28.446C1810.75 27.929 1810.12 27.1705 1809.65 26.1705C1809.18 25.1648 1808.95 23.9318 1808.95 22.4716C1808.95 20.9716 1809.19 19.7244 1809.67 18.7301C1810.15 17.7301 1810.8 16.983 1811.6 16.4886C1812.4 15.9886 1813.29 15.7386 1814.25 15.7386C1814.98 15.7386 1815.59 15.8636 1816.08 16.1136C1816.58 16.358 1816.97 16.6648 1817.27 17.0341C1817.58 17.3977 1817.81 17.7557 1817.97 18.108H1818.08V11.5455H1821.71V29H1818.13V26.9034H1817.97C1817.8 27.267 1817.56 27.6278 1817.25 27.9858C1816.94 28.3381 1816.54 28.6307 1816.05 28.8636C1815.56 29.0966 1814.96 29.2131 1814.26 29.2131ZM1815.41 26.3239C1815.99 26.3239 1816.49 26.1648 1816.89 25.8466C1817.3 25.5227 1817.61 25.071 1817.83 24.4915C1818.05 23.9119 1818.16 23.233 1818.16 22.4545C1818.16 21.6761 1818.05 21 1817.84 20.4261C1817.62 19.8523 1817.31 19.4091 1816.9 19.0966C1816.49 18.7841 1815.99 18.6278 1815.41 18.6278C1814.81 18.6278 1814.31 18.7898 1813.9 19.1136C1813.49 19.4375 1813.18 19.8864 1812.97 20.4602C1812.76 21.0341 1812.65 21.6989 1812.65 22.4545C1812.65 23.2159 1812.76 23.8892 1812.97 24.4744C1813.19 25.054 1813.5 25.5085 1813.9 25.8381C1814.31 26.1619 1814.81 26.3239 1815.41 26.3239ZM1830.66 29.2557C1829.31 29.2557 1828.15 28.983 1827.18 28.4375C1826.21 27.8864 1825.47 27.108 1824.95 26.1023C1824.42 25.0909 1824.16 23.8949 1824.16 22.5142C1824.16 21.1676 1824.42 19.9858 1824.95 18.9688C1825.47 17.9517 1826.21 17.1591 1827.15 16.5909C1828.11 16.0227 1829.23 15.7386 1830.51 15.7386C1831.38 15.7386 1832.18 15.8778 1832.92 16.1562C1833.67 16.429 1834.33 16.8409 1834.88 17.392C1835.45 17.9432 1835.88 18.6364 1836.2 19.4716C1836.51 20.3011 1836.67 21.2727 1836.67 22.3864V23.3835H1825.61V21.1335H1833.25C1833.25 20.6108 1833.13 20.1477 1832.91 19.7443C1832.68 19.3409 1832.36 19.0256 1831.96 18.7983C1831.56 18.5653 1831.1 18.4489 1830.57 18.4489C1830.02 18.4489 1829.53 18.5767 1829.11 18.8324C1828.69 19.0824 1828.36 19.4205 1828.12 19.8466C1827.88 20.267 1827.76 20.7358 1827.75 21.2528V23.392C1827.75 24.0398 1827.87 24.5994 1828.11 25.071C1828.35 25.5426 1828.7 25.9062 1829.14 26.1619C1829.58 26.4176 1830.11 26.5455 1830.72 26.5455C1831.12 26.5455 1831.49 26.4886 1831.82 26.375C1832.16 26.2614 1832.45 26.0909 1832.69 25.8636C1832.92 25.6364 1833.11 25.358 1833.23 25.0284L1836.59 25.25C1836.42 26.0568 1836.07 26.7614 1835.54 27.3636C1835.02 27.9602 1834.34 28.4261 1833.51 28.7614C1832.69 29.0909 1831.74 29.2557 1830.66 29.2557ZM1849.93 19.642L1846.6 19.8466C1846.55 19.5625 1846.42 19.3068 1846.24 19.0795C1846.05 18.8466 1845.8 18.6619 1845.5 18.5256C1845.19 18.3835 1844.83 18.3125 1844.41 18.3125C1843.85 18.3125 1843.38 18.4318 1842.99 18.6705C1842.6 18.9034 1842.41 19.2159 1842.41 19.608C1842.41 19.9205 1842.53 20.1847 1842.78 20.4006C1843.03 20.6165 1843.46 20.7898 1844.07 20.9205L1846.44 21.3977C1847.71 21.6591 1848.66 22.0795 1849.29 22.6591C1849.91 23.2386 1850.23 24 1850.23 24.9432C1850.23 25.8011 1849.97 26.554 1849.47 27.2017C1848.97 27.8494 1848.28 28.3551 1847.4 28.7188C1846.53 29.0767 1845.53 29.2557 1844.4 29.2557C1842.66 29.2557 1841.28 28.8949 1840.25 28.1733C1839.23 27.446 1838.63 26.4574 1838.46 25.2074L1842.03 25.0199C1842.13 25.5483 1842.4 25.9517 1842.81 26.2301C1843.23 26.5028 1843.76 26.6392 1844.4 26.6392C1845.04 26.6392 1845.55 26.517 1845.94 26.2727C1846.33 26.0227 1846.53 25.7017 1846.53 25.3097C1846.53 24.9801 1846.39 24.7102 1846.12 24.5C1845.84 24.2841 1845.42 24.1193 1844.86 24.0057L1842.59 23.554C1841.31 23.2983 1840.36 22.8551 1839.73 22.2244C1839.11 21.5937 1838.8 20.7898 1838.8 19.8125C1838.8 18.9716 1839.03 18.2472 1839.49 17.6392C1839.95 17.0312 1840.59 16.5625 1841.42 16.233C1842.26 15.9034 1843.23 15.7386 1844.35 15.7386C1846.01 15.7386 1847.31 16.0881 1848.26 16.7869C1849.21 17.4858 1849.77 18.4375 1849.93 19.642Z" fill="white"/>
<path d="M203.734 10.7273L198.109 31.625H194.121L199.746 10.7273H203.734ZM214.418 31.625L208.793 10.7273H212.781L218.406 31.625H214.418ZM381.156 10.7273L375.531 31.625H371.543L377.168 10.7273H381.156ZM391.839 31.625L386.214 10.7273H390.203L395.828 31.625H391.839ZM575.266 10.7273L569.641 31.625H565.652L571.277 10.7273H575.266ZM585.949 31.625L580.324 10.7273H584.312L589.938 31.625H585.949ZM753.461 10.7273L747.836 31.625H743.847L749.472 10.7273H753.461ZM764.144 31.625L758.519 10.7273H762.508L768.133 31.625H764.144ZM949.117 10.7273L943.492 31.625H939.504L945.129 10.7273H949.117ZM959.8 31.625L954.175 10.7273H958.164L963.789 31.625H959.8ZM1127.31 10.7273L1121.69 31.625H1117.7L1123.32 10.7273H1127.31ZM1138 31.625L1132.37 10.7273H1136.36L1141.98 31.625H1138ZM1322.2 10.7273L1316.57 31.625H1312.58L1318.21 10.7273H1322.2ZM1332.88 31.625L1327.25 10.7273H1331.24L1336.87 31.625H1332.88ZM1499.62 10.7273L1493.99 31.625H1490L1495.63 10.7273H1499.62ZM1510.3 31.625L1504.68 10.7273H1508.66L1514.29 31.625H1510.3ZM1694.5 10.7273L1688.88 31.625H1684.89L1690.51 10.7273H1694.5ZM1705.18 31.625L1699.56 10.7273H1703.55L1709.17 31.625H1705.18ZM1871.15 10.7273L1865.52 31.625H1861.53L1867.16 10.7273H1871.15ZM1881.83 31.625L1876.21 10.7273H1880.2L1885.82 31.625H1881.83Z" fill="#EFFFC3"/>
</svg>
